<?xml version="1.0" encoding="UTF-8"?>
<svg id="Calque_2" data-name="Calque 2" xmlns="http://www.w3.org/2000/svg" viewBox="0 0 1151.46 792.4">
  <defs>
    <style>
      .cls-1 {
        fill: #cf0822;
      }

      .cls-2 {
        fill: #4985e8;
      }

      .cls-3 {
        fill: #20134d;
      }

      .cls-4 {
        fill: #b8deff;
      }

      .cls-5 {
        fill: #fff;
      }

      .cls-6 {
        fill: #ff8a9e;
      }
    </style>
  </defs>
  <g id="Calque_2-2" data-name="Calque 2">
    <path id="path872" class="cls-4" d="M1042.92,785.69c99.21-77.88,116.5-221.43,38.63-320.64-52.32-66.66-137.25-98.86-220.62-83.65-70.72-164.51-261.41-240.54-425.92-169.82-119.49,51.37-196.72,169.17-196.17,299.23,0,9.16,0,18.18,1.27,27.21-5.38-.61-10.79-.94-16.21-.99-80.19-.11-145.28,64.81-145.39,145-.05,38.9,15.51,76.2,43.19,103.53l921.23.14Z"/>
    <path class="cls-3" d="M782.53,788.08l-162.51-201.15c-3.69-4.57-10.65-4.57-14.34,0l-162.51,201.15h339.36Z"/>
    <path class="cls-3" d="M534.19,788.52l-67.47-83.08c-4.11-5.06-11.84-5.04-15.93.04l-65.29,81.24,148.69,1.8Z"/>
    <path class="cls-2" d="M1043.92,702.85c0-20.84-16.89-99.91-37.73-99.91s-37.73,79.07-37.73,99.91c0,18.65,13.53,34.12,31.31,37.17-.01.18-.03.36-.03.54v40.86c0,3.56,2.89,6.45,6.45,6.45s6.45-2.89,6.45-6.45v-40.86c0-.18-.01-.36-.03-.54,17.78-3.05,31.31-18.53,31.31-37.17Z"/>
    <path class="cls-2" d="M153.98,582.7c0-20.84,16.89-99.91,37.73-99.91s37.73,79.07,37.73,99.91-16.89,37.73-37.73,37.73-37.73-16.89-37.73-37.73Z"/>
    <path class="cls-2" d="M207.6,593.54c0-17.25,13.99-82.74,31.24-82.74s31.24,65.48,31.24,82.74-13.99,31.24-31.24,31.24-31.24-13.99-31.24-31.24Z"/>
    <path class="cls-5" d="M593.81,631.3l-18.97-35.93,5.02-8.65-21.9-61.28-13.9-61.03-43.53-2.85-73.52,3.32-9.47,25.37-14.28,55.92-20.51,51.16-9.48,36.06-93.66,150.53h61.16l8.1-4.14,27.82-56.09,32.5-27.85,41.84-23.03,38.06-4.29s23.9,5.45,24.29,5.58c.38.13,47.6,28.76,47.6,28.76l28.73,31.15,27.82,43.97,12.63,7.99,52.42-2.04,2.47-5.78-91.22-146.83ZM426.03,598.45l8.21-6.27,22.27-91.59h52.47l22.43,97.85h-105.38Z"/>
    <polygon class="cls-5" points="437.27 635.14 416.1 642.49 387.47 714.45 415.83 692.17 451.02 672.81 489.07 668.52 531.41 678.6 577.43 719.27 584.78 703.23 546.43 638.41 437.27 635.14"/>
    <path class="cls-5" d="M642.46,422.51l-118.67-.02c-3.57-3.52-5.57-8.33-5.57-13.33.01-7.53,4.47-14.02,10.9-16.98,2.38-1.1,5.04-1.71,7.83-1.7.5,0,1,.03,1.5.07.2.02.4.03.59.06-.16-1.16-.16-2.32-.16-3.5-.07-16.76,9.88-31.93,25.27-38.55,4.92-2.11,10.03-3.21,15.08-3.38,16.69-.57,32.8,8.99,39.79,25.25.41-.07.83-.14,1.24-.2,10.33-1.43,20.7,2.72,27.17,10.97,10.03,12.78,7.81,31.27-4.98,41.31Z"/>
    <path class="cls-5" d="M1015.08,489.39h-72.79c-2.19-2.17-3.42-5.12-3.41-8.19,0-4.62,2.74-8.6,6.68-10.41,1.46-.67,3.09-1.05,4.81-1.04.31,0,.61.02.92.04.12.01.24.02.36.04-.1-.71-.1-1.42-.1-2.15-.04-10.28,6.06-19.59,15.5-23.64,3.02-1.3,6.15-1.97,9.25-2.07,10.24-.35,20.12,5.51,24.41,15.49.25-.05.51-.09.76-.12,6.34-.88,12.69,1.67,16.67,6.73,6.15,7.84,4.79,19.18-3.05,25.34Z"/>
    <path class="cls-5" d="M401.71,529.42l-109.55-.02c-3.29-3.25-5.14-7.69-5.14-12.31,0-6.95,4.13-12.94,10.06-15.67,2.2-1.01,4.65-1.57,7.23-1.57.46,0,.92.03,1.38.06.18.02.37.03.55.05-.15-1.07-.15-2.14-.15-3.23-.07-15.47,9.12-29.48,23.33-35.58,4.54-1.95,9.26-2.96,13.92-3.12,15.41-.52,30.28,8.3,36.73,23.31.38-.07.77-.13,1.15-.18,9.54-1.32,19.11,2.51,25.08,10.13,9.26,11.8,7.21,28.87-4.59,38.13Z"/>
    <polygon class="cls-5" points="489.53 144.13 465.32 145.18 468.83 162.47 461.18 275.05 452.03 360.9 434.1 447.7 468.02 446.95 476.69 371.29 483.47 305.31 487.46 349.59 495.58 426.52 500.52 448.34 531.41 448.34 529.66 425.4 515.04 348.63 504 247.34 495.9 142.54 489.53 144.13"/>
    <rect class="cls-4" x="411.63" y="446.95" width="145.17" height="29.22" rx="11.34" ry="11.34"/>
    <rect class="cls-4" x="365.68" y="595.37" width="233.42" height="40.35" rx="11.34" ry="11.34"/>
    <path class="cls-3" d="M700.17,790.36l-98.22-158.16c3.67-4.56,5.88-10.36,5.88-16.66,0-11.94-7.9-22.06-18.74-25.43-3.17-5.29-13.29-23.76-22.66-58.01-9.34-34.13-11.75-48.64-12.37-53.67,5.15-3.84,8.51-9.96,8.51-16.87,0-11.61-9.45-21.06-21.06-21.06h-3.7c-5.01-22.55-25.41-122.3-33.37-283.12h3.4c4.68,0,8.49-3.81,8.49-8.49v-28.33c0-4.06-2.87-7.46-6.68-8.29v-11.1c0-4.68-3.81-8.48-8.48-8.48h-7.09c-1.22-9.57-1.58-19.37-1.93-28.88-.09-2.56-.19-5.13-.3-7.66-.48-14.2-.93-31.04-.57-48.3v-.13c-.06-4.41-3.38-7.73-7.72-7.73h-.02c-4.37,0-7.69,3.34-7.73,7.87.16,7.32.17,15.2.04,24.11-.18,12.15-.54,24.35-1.09,36.28-.34,8.28-.73,16.4-1.75,24.43h-7.1c-4.68,0-8.48,3.81-8.48,8.48v11.1c-3.81.83-6.68,4.23-6.68,8.29v28.33c0,4.68,3.81,8.49,8.48,8.49h3.4c-7.96,160.82-28.36,260.56-33.37,283.12h-3.7c-11.61,0-21.06,9.45-21.06,21.06,0,6.91,3.36,13.03,8.51,16.87-.63,5.12-3.05,19.63-12.37,53.68-9.37,34.24-19.5,52.72-22.66,58.01-10.84,3.37-18.74,13.49-18.74,25.43,0,6.71,2.5,12.84,6.61,17.52l-99.04,157.29h83.77l16.19-32.39c19.11-32.97,57.32-83,113.27-83,70.31,0,117.46,78.75,130.74,103.95l5.72,11.45h83.68ZM591.64,640.03l22.35,35.99h-40.22l-16.92-33.86h24.35c3.7,0,7.23-.76,10.43-2.13ZM617.19,681.17l8.55,13.77-28.35,28.36-21.05-42.13h40.85ZM599.82,728.17l28.71-28.72,33.53,53.99-61.09-22.95-1.16-2.32ZM624.54,777.47c-.78-1.58-1.81-3.61-3.09-6.01l-17.08-34.19,62.16,23.36,10.46,16.85h-52.45ZM403.74,564.76l25.05,24.16h-35.46c2.83-5.58,6.48-13.56,10.41-24.16ZM445.13,529.19l-24.05-24.95c.08-.36.16-.71.24-1.06h30.52l-6.72,26.01ZM419.66,510.2l23.84,24.74-34.66,14.93c1.41-4.46,2.83-9.23,4.23-14.36,2.73-9.95,4.88-18.31,6.59-25.31ZM406.7,556.4l35.33-15.22-11.03,42.71-25.35-24.44c.35-1,.7-2.01,1.05-3.04ZM459.84,503.18h45.82l22.15,85.74h-90.11l22.15-85.74ZM500.34,482.61l3.98,15.41h-43.15l3.98-15.41h35.19ZM553.99,535.51c1.22,4.46,2.46,8.66,3.69,12.62l-35.2-15.17,24.68-23.8c1.74,7.21,3.97,15.9,6.84,26.35ZM522.82,538.72l36.96,15.92c.29.89.59,1.76.88,2.62l-26.06,27.04-11.77-45.58ZM545.78,503.33l-25.7,24.78-6.44-24.93h32.1s.02.1.03.15ZM562.57,562.71c4.22,11.63,8.15,20.28,11.16,26.22h-36.43l25.27-26.22ZM544.58,498.02h-32.28l-3.98-15.41h33.18s.08,0,.13,0c.51,3.38,1.4,8.34,2.95,15.41ZM523.11,433.38l-24.14-16.78c-.1-.75-.2-1.51-.3-2.3l16.66-23.29c3.07,18.52,5.8,32.71,7.78,42.37ZM469.23,407.59l-16.48-22.8c.32-1.96.64-3.96.96-6.02l19.78-17.1c-1.39,19.05-2.86,34.12-4.26,45.92ZM474.62,344.92l-13.23-20.98c.37-2.94.73-5.93,1.09-8.96l14.53-17.61c-.71,17.78-1.52,33.56-2.39,47.54ZM470.51,234.64l8.44-5.69c-.21,11.33-.45,22.09-.73,32.32l-9.01-11.27c.44-5.03.88-10.15,1.3-15.36ZM490.1,298.53l14.64,17.74c.26,2.18.52,4.33.79,6.46l-13.16,20.87c-.82-13.35-1.59-28.31-2.27-45.07ZM493.64,362.52l19.86,17.18c.22,1.39.44,2.76.65,4.1l-16.42,22.94c-1.35-11.49-2.76-26.02-4.1-44.22ZM512.28,371.82l-19.16-16.57c-.07-.95-.13-1.91-.2-2.88l13.61-21.58c1.93,15.06,3.87,28.75,5.74,41.03ZM489.77,290.03c-.25-6.66-.48-13.59-.69-20.79l9.45-11.82c1.61,17.6,3.33,34.09,5.1,49.4l-13.85-16.78ZM497.86,250l-9.01,11.27c-.28-10.07-.52-20.67-.72-31.8l8.45,5.44c.42,5.12.84,10.15,1.28,15.09ZM477.99,269.24c-.2,6.79-.42,13.33-.65,19.63l-13.75,16.66c1.72-14.95,3.39-31,4.95-48.12l9.45,11.82ZM460.37,331.99l13.68,21.69c-.02.25-.03.49-.05.73l-19.08,16.5c1.78-11.72,3.62-24.7,5.45-38.92ZM451.58,391.97l16.72,23.13c-.02.19-.05.38-.07.57l-24.21,17.46c1.94-9.48,4.59-23.27,7.57-41.16ZM467.24,422.73c-1.23,8.43-2.31,14.15-3.09,17.77h-21.55l24.64-17.77ZM478.89,390.55c1.54-16.01,3.2-37.55,4.65-65.84,1.44,28.29,3.1,49.83,4.65,65.84,2.56,26.6,5.13,41.89,6.8,49.95h-22.9c1.67-8.06,4.24-23.35,6.8-49.95ZM502.91,440.5c-.75-3.5-1.79-8.96-2.97-16.94l24.38,16.94h-21.41ZM425.56,453.39h115.95c4.5,0,8.17,3.66,8.17,8.17s-3.66,8.17-8.17,8.17h-115.95c-4.5,0-8.17-3.66-8.17-8.17s3.66-8.17,8.17-8.17ZM425.56,482.61h31.6l-3.98,15.41h-30.7c1.55-7.08,2.44-12.03,2.95-15.41.04,0,.08,0,.13,0ZM385.86,601.81h195.35c7.57,0,13.73,6.16,13.73,13.73s-6.16,13.73-13.73,13.73h-195.35c-7.57,0-13.73-6.16-13.73-13.73s6.16-13.73,13.73-13.73ZM366.08,730.48l-60.7,22.81,33.61-53.38,28.25,28.26-1.16,2.32ZM369.67,723.3l-27.86-27.87,8.98-14.26h39.93l-21.05,42.13ZM393.3,676.02h-39.26l22.4-35.58c2.93,1.11,6.1,1.73,9.42,1.73h24.35l-16.92,33.86ZM300.84,760.51l61.86-23.24-6.6,13.21c-6.91,11.86-11.5,21.72-13.79,26.99h-52.14l10.68-16.96ZM480.03,662.07c-29.62,0-58.08,12.49-83.54,36.4l28.13-56.31h117.82l32.56,65.16c-29.38-29.68-61.91-45.25-94.97-45.25Z"/>
    <path class="cls-2" d="M1021.89,763.55c-3.5,0-6.81.82-9.75,2.27-6.53-10.22-17.97-17.01-31-17.01-10.12,0-19.29,4.09-25.94,10.71-4.03-2.09-8.61-3.28-13.46-3.28-16.2,0-29.32,13.13-29.32,29.32h131.5c0-12.17-9.86-22.03-22.03-22.03Z"/>
    <path class="cls-2" d="M1103.21,715.32c0-18.41-14.92-88.26-33.33-88.26s-33.33,69.85-33.33,88.26c0,16.2,11.56,29.69,26.88,32.7v33.4c0,3.56,2.89,6.45,6.45,6.45s6.45-2.89,6.45-6.45v-33.4c15.32-3,26.88-16.5,26.88-32.7Z"/>
    <circle class="cls-5" cx="267.4" cy="365.4" r="40.69"/>
    <circle class="cls-5" cx="750.7" cy="251.82" r="92.27"/>
    <path class="cls-5" d="M450.65,785.96c0-17.53,14.21-31.74,31.74-31.74s31.74,14.21,31.74,31.74"/>
    <path class="cls-2" d="M760.24,759.63c-4.06,0-7.9.95-11.31,2.64-7.57-11.86-20.84-19.73-35.95-19.73-11.74,0-22.38,4.75-30.09,12.43-4.68-2.42-9.99-3.8-15.62-3.8-18.79,0-34.01,15.23-34.01,34.01h152.54c0-14.11-11.44-25.55-25.55-25.55Z"/>
    <path class="cls-2" d="M811.19,262.08l-5.63-1.57c.45-2.83.68-5.73.68-8.68,0-10.99-3.22-21.23-8.75-29.86l3.55-2.61c2.17-1.59,2.64-4.64,1.04-6.82-1.59-2.17-4.64-2.64-6.82-1.04l-3.73,2.74c-9.12-9.9-21.79-16.48-35.96-17.72v-3.94c0-2.69-2.18-4.88-4.88-4.88s-4.88,2.18-4.88,4.88v3.94c-14.18,1.24-26.84,7.82-35.96,17.72l-3.73-2.74c-2.17-1.59-5.22-1.13-6.82,1.04-1.59,2.17-1.13,5.22,1.04,6.82l3.55,2.61c-5.53,8.63-8.75,18.87-8.75,29.86,0,2.95.24,5.85.68,8.68l-5.63,1.57c-2.59.72-4.11,3.41-3.39,6.01.72,2.59,3.42,4.11,6.01,3.39l5.39-1.5c4.37,12.61,13.16,23.16,24.52,29.81l-2.81,6.15c-1.12,2.45-.04,5.34,2.41,6.46.66.3,1.34.44,2.02.44,1.85,0,3.62-1.06,4.44-2.85l2.75-6.02c5.97,2.2,12.42,3.41,19.15,3.41s13.18-1.2,19.15-3.41l2.75,6.02c.82,1.79,2.59,2.85,4.44,2.85.68,0,1.37-.14,2.02-.44,2.45-1.12,3.53-4.01,2.41-6.46l-2.81-6.15c11.35-6.65,20.14-17.2,24.52-29.81l5.39,1.5c2.59.72,5.28-.79,6.01-3.39.72-2.59-.79-5.28-3.39-6.01ZM783.62,220.05l-23.38,17.17c-1.42-.93-2.99-1.66-4.66-2.15v-28.77c10.96,1.17,20.77,6.22,28.04,13.75ZM742.99,251.82c0-4.25,3.46-7.71,7.71-7.71s7.71,3.46,7.71,7.71-3.46,7.71-7.71,7.71-7.71-3.46-7.71-7.71ZM745.82,206.3v28.77c-1.67.49-3.24,1.21-4.66,2.15l-23.38-17.17c7.27-7.53,17.08-12.58,28.04-13.75ZM704.91,251.82c0-8.83,2.52-17.08,6.87-24.08l23.02,16.9c-.76,1.68-1.28,3.5-1.47,5.41l-28,7.81c-.26-1.98-.41-3.99-.41-6.04ZM726.81,290.86c-8.79-5.4-15.62-13.68-19.18-23.52l27.5-7.67c.93,1.85,2.19,3.5,3.69,4.9l-12,26.29ZM750.7,297.61c-5.28,0-10.36-.91-15.08-2.56l11.9-26.06c1.03.19,2.1.3,3.18.3s2.15-.11,3.18-.3l11.9,26.06c-4.73,1.65-9.8,2.56-15.08,2.56ZM774.59,290.86l-12-26.29c1.5-1.4,2.75-3.05,3.69-4.9l27.5,7.67c-3.56,9.84-10.39,18.12-19.18,23.52ZM796.08,257.86l-28-7.81c-.19-1.91-.71-3.73-1.47-5.41l23.02-16.9c4.35,7,6.87,15.25,6.87,24.08,0,2.05-.15,4.06-.41,6.04Z"/>
    <path class="cls-2" d="M854.14,258.41c-.54-.09-1.08-.14-1.62-.17.13-2.12.21-4.26.21-6.42,0-24.76-8.87-47.48-23.59-65.17.49-.39.96-.8,1.4-1.27,4.87-5.2,4.6-13.35-.6-18.22-1.14-1.07-2.31-2.12-3.47-3.12-5.39-4.66-13.53-4.06-18.18,1.32-.42.49-.78,1-1.12,1.53-16.18-10.79-35.6-17.09-56.47-17.09-5.86,0-11.61.5-17.2,1.46-.09-.6-.21-1.21-.4-1.81-2.07-6.81-9.28-10.65-16.09-8.58-1.48.45-2.97.94-4.43,1.45-6.72,2.34-10.27,9.69-7.93,16.42.21.59.46,1.16.74,1.7-23.13,11.51-41.3,31.55-50.38,55.97-.56-.22-1.14-.41-1.75-.56-6.93-1.61-13.86,2.7-15.48,9.63-.35,1.51-.68,3.05-.97,4.56l-.03.15c-1.35,6.98,3.21,13.73,10.18,15.1.64.12,1.27.18,1.89.21-.13,2.09-.2,4.2-.2,6.33,0,3.86.24,7.66.66,11.42-.15,2.07-1.59,10.5-15.25,14.34-1.41.4-2.42.73-3.09,1.02l-288.05,63.6c-.7.1-1.66.3-2.92.6-15.81,3.8-20.2-6.67-20.2-6.67l-.02.04c-10.28-18.35-29.91-30.79-52.4-30.79-33.1,0-60.02,26.92-60.02,60.02s26.92,60.02,60.02,60.02c3.96,0,7.83-.4,11.58-1.13h0s10.01-2.27,17.49,12.17c.45.87.84,1.58,1.18,2.13l149.97,294.56c.24.67.76,1.7,1.55,3.23,5.55,10.74,2.14,17.13.37,19.42-.27.29-.53.59-.79.89-.05.05-.09.08-.09.08h.01c-6.78,7.83-10.9,18.03-10.9,29.18h25.78c0-10.39,8.46-18.85,18.85-18.85s18.85,8.46,18.85,18.85h25.78c0-24.61-20.02-44.63-44.63-44.63-1.52,0-3.02.08-4.5.23h0s0,0,0,0c-.34.03-.68.09-1.01.13-2.75.18-10.48-.41-16.33-11.53l-151.77-298.1c-.23-.48-.53-1.06-.88-1.72l-.91-1.8c-6.35-13.32,1.95-19.83,1.95-19.83h-.02c10.53-10.1,17.39-23.97,18.38-39.43l.03.03s.19-10.41,16.06-13.95c.7-.16,1.29-.3,1.81-.44l299.74-66.18c7.91-.3,11.79,3.87,13.14,5.8,3.77,8.14,8.57,15.72,14.26,22.54-.49.39-.96.8-1.4,1.27-4.86,5.2-4.59,13.36.62,18.22,1.13,1.06,2.3,2.11,3.46,3.11,2.44,2.1,5.44,3.14,8.42,3.14,3.62,0,7.21-1.51,9.76-4.46.42-.49.78-1,1.12-1.53,16.17,10.76,35.56,17.05,56.39,17.05,5.89,0,11.66-.51,17.29-1.47.09.6.21,1.21.4,1.81,1.7,5.56,6.8,9.13,12.32,9.13,1.25,0,2.51-.18,3.77-.56,1.48-.45,2.97-.94,4.43-1.45,6.72-2.35,10.26-9.7,7.91-16.42-.21-.59-.47-1.15-.75-1.69,23.12-11.53,41.28-31.58,50.34-56.02.56.22,1.14.41,1.75.55.98.23,1.96.34,2.92.34,5.86,0,11.16-4.03,12.55-9.98.34-1.48.66-2.98.94-4.46.02-.11.04-.22.06-.3,1.22-7.01-3.48-13.68-10.49-14.9ZM267.4,399.63c-18.88,0-34.24-15.36-34.24-34.24s15.36-34.24,34.24-34.24,34.24,15.36,34.24,34.24-15.36,34.24-34.24,34.24ZM750.7,334.35c-45.5,0-82.52-37.02-82.52-82.52s37.02-82.52,82.52-82.52,82.52,37.02,82.52,82.52-37.02,82.52-82.52,82.52Z"/>
    <rect class="cls-6" x="103.6" y="559.32" width="58.73" height="106.67" transform="translate(265.92 1225.31) rotate(-180)"/>
    <rect class="cls-1" x="165.13" y="556.16" width="159.14" height="113.4" transform="translate(489.4 1225.72) rotate(-180)"/>
    <g>
      <path class="cls-3" d="M324.27,549.71H102.55c-3.56,0-6.45,2.89-6.45,6.45v113.4c0,3.56,2.89,6.45,6.45,6.45h221.72c1.71,0,3.35-.68,4.56-1.89,1.21-1.21,1.89-2.85,1.89-4.56v-113.4c0-3.56-2.89-6.45-6.45-6.45ZM317.82,652.5h-146.25v-89.9h146.25v89.9ZM158.68,567.07h-3.77c-1.42,0-2.58,1.15-2.58,2.58s1.15,2.58,2.58,2.58h3.77v30.23h-3.77c-1.42,0-2.58,1.15-2.58,2.58s1.15,2.58,2.58,2.58h3.77v30.23h-3.77c-1.42,0-2.58,1.15-2.58,2.58s1.15,2.58,2.58,2.58h3.77v9.52h-23.15v-89.9h23.15v4.46ZM130.38,562.6v89.9h-21.39v-9.52h3.32c1.42,0,2.58-1.15,2.58-2.58s-1.15-2.58-2.58-2.58h-3.32v-30.23h3.32c1.42,0,2.58-1.15,2.58-2.58s-1.15-2.58-2.58-2.58h-3.32v-30.23h3.32c1.42,0,2.58-1.15,2.58-2.58s-1.15-2.58-2.58-2.58h-3.32v-4.46h21.39ZM108.99,657.66h49.69v5.45h-6.18c-.33-1.8-1.9-3.17-3.8-3.17h-6.55c-1.9,0-3.47,1.37-3.8,3.17h-10.68c-.33-1.8-1.9-3.17-3.8-3.17h-6.55c-1.9,0-3.47,1.37-3.8,3.17h-4.55v-5.45ZM171.58,663.11v-5.45h146.25v5.45h-146.25Z"/>
      <path class="cls-3" d="M296.59,638.74c4.27,0,7.73-3.46,7.73-7.73v-51.96c0-4.27-3.46-7.73-7.73-7.73s-7.73,3.46-7.73,7.73v51.96c0,4.27,3.46,7.73,7.73,7.73Z"/>
      <path class="cls-3" d="M192.81,638.74c4.27,0,7.73-3.46,7.73-7.73v-51.96c0-4.27-3.46-7.73-7.73-7.73s-7.73,3.46-7.73,7.73v51.96c0,4.27,3.46,7.73,7.73,7.73Z"/>
      <path class="cls-3" d="M218.75,638.74c4.27,0,7.73-3.46,7.73-7.73v-51.96c0-4.27-3.46-7.73-7.73-7.73s-7.73,3.46-7.73,7.73v51.96c0,4.27,3.46,7.73,7.73,7.73Z"/>
      <path class="cls-3" d="M244.7,638.74c4.27,0,7.73-3.46,7.73-7.73v-51.96c0-4.27-3.46-7.73-7.73-7.73s-7.73,3.46-7.73,7.73v51.96c0,4.27,3.46,7.73,7.73,7.73Z"/>
      <path class="cls-3" d="M270.65,638.74c4.27,0,7.73-3.46,7.73-7.73v-51.96c0-4.27-3.46-7.73-7.73-7.73s-7.73,3.46-7.73,7.73v51.96c0,4.27,3.46,7.73,7.73,7.73Z"/>
    </g>
    <rect class="cls-6" x="71.26" y="675.47" width="162.16" height="106.67"/>
    <rect class="cls-1" x="233.2" y="672.3" width="59.78" height="113.4"/>
    <g>
      <path class="cls-3" d="M297.54,667.75c-1.21-1.21-2.85-1.89-4.56-1.89H71.26c-3.56,0-6.45,2.89-6.45,6.45v113.4c0,3.56,2.89,6.45,6.45,6.45h221.72c3.56,0,6.45-2.89,6.45-6.45v-113.4c0-1.71-.68-3.35-1.89-4.56ZM286.53,683.21h-3.32c-1.42,0-2.58,1.15-2.58,2.58s1.15,2.58,2.58,2.58h3.32v30.23h-3.32c-1.42,0-2.58,1.15-2.58,2.58s1.15,2.58,2.58,2.58h3.32v30.23h-3.32c-1.42,0-2.58,1.15-2.58,2.58s1.15,2.58,2.58,2.58h3.32v9.52h-21.39v-89.9h21.39s0,4.46,0,4.46ZM236.84,768.65v-9.52h3.77c1.42,0,2.58-1.15,2.58-2.58s-1.15-2.58-2.58-2.58h-3.77v-30.23h3.77c1.42,0,2.58-1.15,2.58-2.58s-1.15-2.58-2.58-2.58h-3.77v-30.23h3.77c1.42,0,2.58-1.15,2.58-2.58s-1.15-2.58-2.58-2.58h-3.77v-4.46h23.14s0,89.9,0,89.9h-23.14ZM223.95,678.75v89.9H77.7v-89.9h146.25ZM77.7,773.8h146.25v5.45H77.7v-5.45ZM281.98,779.26c-.33-1.8-1.9-3.17-3.8-3.17h-6.55c-1.9,0-3.47,1.37-3.8,3.17h-10.68c-.33-1.8-1.9-3.17-3.8-3.17h-6.55c-1.9,0-3.47,1.37-3.8,3.17h-6.18v-5.45h49.69v5.45h-4.55Z"/>
      <path class="cls-3" d="M98.93,754.89c4.27,0,7.73-3.46,7.73-7.73v-51.96c0-4.27-3.46-7.73-7.73-7.73s-7.73,3.46-7.73,7.73v51.96c0,4.27,3.46,7.73,7.73,7.73Z"/>
      <path class="cls-3" d="M202.72,754.89c4.27,0,7.73-3.46,7.73-7.73v-51.96c0-4.27-3.46-7.73-7.73-7.73s-7.73,3.46-7.73,7.73v51.96c0,4.27,3.46,7.73,7.73,7.73Z"/>
      <path class="cls-3" d="M176.77,754.89c4.27,0,7.73-3.46,7.73-7.73v-51.96c0-4.27-3.46-7.73-7.73-7.73s-7.73,3.46-7.73,7.73v51.96c0,4.27,3.46,7.73,7.73,7.73Z"/>
      <path class="cls-3" d="M150.83,754.89c4.27,0,7.73-3.46,7.73-7.73v-51.96c0-4.27-3.46-7.73-7.73-7.73s-7.73,3.46-7.73,7.73v51.96c0,4.27,3.46,7.73,7.73,7.73Z"/>
      <path class="cls-3" d="M124.88,754.89c4.27,0,7.73-3.46,7.73-7.73v-51.96c0-4.27-3.46-7.73-7.73-7.73s-7.73,3.46-7.73,7.73v51.96c0,4.27,3.46,7.73,7.73,7.73Z"/>
    </g>
    <path class="cls-2" d="M115.95,737.73c-19.19,0-35.9,10.61-44.59,26.29-2.04-.52-4.17-.8-6.37-.8-14.07,0-25.48,11.41-25.48,25.48h127.41c0-28.15-22.82-50.96-50.96-50.96Z"/>
    <path class="cls-3" d="M303.21,792.4c-43.89,0-83.08,0-117.39-.03-179.26-.1-179.92-.32-181.49-.87-3.36-1.17-5.13-4.85-3.96-8.21,1.02-2.91,3.92-4.63,6.86-4.27,7.38.37,129.99.5,292.13.5,334.72,0,838.13-.53,845.66-.54h0c3.56,0,6.44,2.88,6.45,6.44,0,3.56-2.88,6.45-6.44,6.45-2.84,0-287.02.31-567.98.46-105.15.06-196.74.08-273.83.08ZM8.56,779.33s.01,0,.02,0c0,0-.01,0-.02,0ZM8.54,779.32s0,0,.01,0c0,0,0,0-.01,0Z"/>
    <path class="cls-4" d="M936.34,575.64c1.6,1.97,27.2,34.69,27.2,78.53,0,25.99-15.52,50.91-33.86,67.88-13.6,12.58-28.75,20.81-40.28,21.88l-16.68,16.15,7.18,25.49h-19.03l-10.42-21.53h-4.31l-10.42,21.53h-16.86l-16.17-34.11s-67.47-11.72-80.03-99.57c0,0-21.52-27.78-50.64,20.63,0,0-14.36-20.95-4.78-46.52,9.59-25.58,34.3-21.21,34.3-21.21,0,0-29.37-30.51-58.14,18.9,0,0-21.48-36.44,9.02-61.04,26.76-21.59,56.39-4.96,56.94-4.67-.49-.75-20.81-30-82.14-16.85-.03,0-.06,0-.09.01,0,0,16.86-43.31,65.1-43.31,21.08,0,37.49,9.81,49.28,20.86,1.71,1.6,3.33,3.24,4.85,4.86,0,0-2.4-32.68-52.09-50.12,0,0,47.26-23.5,85.17,6.15,37.94,29.64,33.14,85.44,33.14,85.44v50.13c.3.01.59.01.88,0h.22s25.73,4.37,36.19-32.69c10.47-37.05,18-67.15,39.51-88.5h-.08c-2.06.21-43.55,3.7-32.73-32.73,11.1-37.37,43.04-32.61,45.75-13.37,0,0,26.94-26.49,29.89,10.64,0,0,22.19-12.22,22.88,13.37.26,10.35-4.99,15.4-11.33,17.75.04.03.06.06.12.09,1.13.94,10.51,8.95,9.97,19.77,0,0,17.24,1.79,26.57,13.63h-26.57s-2.53,15.08,2.5,19.76c5.03,4.67,8.62,11.12,5.4,23.33-3.24,12.14-21.35,13.64-25.42,9.44Z"/>
    <path class="cls-2" d="M889.39,743.93l-16.68,16.15,7.18,25.49h-19.03l-10.42-21.53h-8.78l-5.94,21.53h-16.87l-16.17-34.11s-67.47-11.73-80.02-99.57c0,0,35.81,28.1,88.02,22.15,0,0-14.72,16.46-55.01,13.66,0,0,38.53,25.87,92.15.32,0,0-4.35,18.25-44.05,24.92,0,0,132.01,16.99,101.87-98.84,0,0,31.02,25.06,10.51,72.38-13.66,31.53-45.56,41.7-45.56,41.7,0,0,26.4,7.86,59.06-6.13-13.6,12.58-28.74,20.8-40.28,21.87Z"/>
    <path class="cls-1" d="M886.7,500.78l-21.12,31.31s41.55,6.36,64.46,38.67c11.75,16.57,21.2,5.73,21.2,5.73l10.51-10.28v-22.43l-8.55-11.56.39-5.4,26.84-3.7-26.57-13.63-10.08-19.86-10.2-12.42-27.49-2.31-19.38,25.89Z"/>
    <path class="cls-5" d="M812.6,565.02v56.09c-32.65-.9-32.16-18.18-31.87-71.59.38-69.64-86.45-76.1-86.45-76.1,0,0,47.26-23.5,85.17,6.15,37.94,29.64,33.14,85.44,33.14,85.44Z"/>
    <path class="cls-5" d="M754.56,553.56s-64.07-68.5-121.03-17.79c-2.28,2.02-4.37,3.8-6.3,5.36-.03,0-.06,0-.09.01,0,0,16.86-43.31,65.1-43.31,21.08,0,37.49,9.81,49.28,20.86l12.01,22.03,1.02,12.84Z"/>
    <circle class="cls-5" cx="929.67" cy="512.27" r="7.47"/>
    <path class="cls-3" d="M935.2,585.3c-.21-.41-21.2-40.96-70.12-50.69l1-5.06c51.46,10.23,72.84,51.67,73.72,53.43l-4.61,2.32Z"/>
    <path class="cls-3" d="M927.34,565.41s2.81,6.47,15.63,5.74c12.83-.72-4.63,7.3-4.63,7.3l-7.54-2.53-3.46-10.52Z"/>
    <path class="cls-6" d="M956.23,473.5c.26,10.35-10.5,17.22-16.85,19.56-31.12-22.6-48.86,2.53-48.86,2.53h-.07c-2.07.21-43.55,3.71-32.73-32.73,11.1-37.36,43.03-32.61,45.75-13.37,0,0,26.94-26.49,29.89,10.64,0,0,22.19-12.22,22.88,13.37Z"/>
    <path class="cls-3" d="M888.4,792.02h-31.58l-10.42-21.53h-2.1l-8.69,21.53h-20.83l-16.58-34.98c-6.19-1.62-19.99-6.18-34.7-17.28-17.54-13.24-39.78-38.68-46.92-84.97-1.75-1.68-5.71-4.73-11.14-4.36-6,.41-15.71,5.15-27.89,25.41l-5.17,8.59-5.67-8.27c-.66-.97-16.14-24.04-5.5-52.43,4.29-11.45,11.48-18.14,18.96-21.81-.98-.03-1.97.02-2.99.15-9.69,1.22-19.44,9.81-28.2,24.85l-5.53,9.5-5.59-9.47c-8.41-14.26-17.04-47.11,10.52-69.33,8.61-6.94,17.75-10.46,26.52-11.8-11.32-2.31-26.48-2.67-46.41,1.61l-11.7,2.51,4.34-11.15c.19-.49,4.8-12.14,15.78-23.75,14.65-15.49,33.78-23.67,55.32-23.67,11.98,0,23.59,2.97,34.45,8.73-8.38-8.51-20.13-15.54-34.55-20.6l-14.59-5.12,13.91-6.76c2.12-1.03,52.44-24.89,93.06,6.88,39.19,30.62,36,85.72,35.62,90.77v43.19c1.67-.33,3.61-.91,5.65-1.91,8.05-3.97,14.23-12.9,17.88-25.84l1.73-6.15c8.19-29.14,15.38-54.75,30.48-74.86-7.9-1.29-17.02-4.49-22.59-12.07-5.32-7.23-6.29-16.73-2.88-28.24,7.57-25.48,24.31-33.48,36.38-32.58,7.76.58,14.42,4.62,18.36,10.63,5.48-3.55,13.19-6.89,20.4-4.2,5.94,2.22,9.93,7.76,11.91,16.53,4.35-.96,9.73-1.14,14.55,1.62,6.07,3.48,9.28,10.31,9.55,20.3.21,8.02-4.26,14.42-8.49,18.67,2.45,3.2,5.58,7.95,7.97,13.81,5.88,1.36,16.71,5.1,24.47,14.94l5.67,7.19-30.38,10.17c-.23.67-.36,1.36-.03,1.66,6.93,6.42,11.28,19.53,5.69,31.16-3.45,7.17-10.43,12.01-17.1,13.93,14.87,23.99,21.82,47.94,20.65,71.25-1.9,37.86-17.4,55.14-35.93,72.3-13.78,12.75-29.17,21.29-41.72,23.26l-12.37,11.98,8.45,29.98ZM864.91,779.13h6.47l-5.92-21,21.07-20.41,2.26-.21c10.06-.93,24.04-8.67,36.5-20.18,17.01-15.74,30.15-30.42,31.81-63.49,1.69-33.67-16.28-60.39-22.19-69.17-1.88-2.8-2-6.33-.3-9.21,1.69-2.87,4.82-4.48,8.19-4.19h0c2.71.23,9.44-2.22,12.01-7.55,2.93-6.09.23-13.27-2.84-16.12-6.29-5.85-4.93-14.51-1.02-20.09l1.22-1.73,15.58-5.22c-6.12-3.6-12.08-4.28-12.16-4.29l-4.17-.44-1.32-4c-2.88-8.94-8.64-15.38-9.76-16.58-1.51-1.61-2.28-3.79-2.11-5.99.17-2.21,1.27-4.26,3.01-5.62,1.78-1.39,7.55-6.32,7.41-11.61-.13-4.95-1.25-8.4-3.06-9.44-2.66-1.54-8.18.44-10.3,1.57l-8.7,4.69-.81-9.84c-.72-9.04-2.93-13-4.76-13.68-3.2-1.2-10.42,3.46-14.2,7.14l-9.11,8.88-1.79-12.58c-.72-5.12-4.69-8.68-10.12-9.09-11.65-.87-19.7,12.06-23.06,23.39-2.2,7.43-1.9,13.12.9,16.93,4.93,6.69,16.88,7.56,21.79,7.63,3.2.04,6.08,1.96,7.35,4.9,1.27,2.94.69,6.37-1.47,8.73-17.21,18.77-24.4,44.38-33.51,76.8l-1.74,6.17c-11.88,42.13-43.14,37.34-43.46,37.29l-5.37-.91.02-56.12c.04-.52,3.97-52.73-30.69-79.81-21.9-17.12-48.15-14.64-64.33-10.58,37.89,19.35,40.44,47.66,40.54,49l1.34,18.25-12.48-13.38c-14.65-15.71-31.28-23.68-49.42-23.68-28.62,0-45.01,16.6-52.98,28.22,55.27-7.29,74.62,20.63,75.48,21.92l14.66,21.99-23.14-12.77c-1.1-.61-26.81-14.5-49.78,4.03-16.79,13.54-15.17,31.35-11.82,42.43,9.39-12.49,19.81-19.48,31.1-20.84,17.53-2.1,29.91,10.52,30.43,11.06l13.72,14.26-19.49-3.44s-5.18-.81-11.1.99c-7.49,2.28-12.89,7.71-16.04,16.13-4.7,12.54-2.87,23.76-.34,31.22,10.24-13.92,20.93-21.28,31.88-21.92,14.07-.84,22.59,9.93,22.94,10.39l1.04,1.35.24,1.69c4.91,34.41,18.95,60.69,41.7,78.1,17.03,13.03,32.9,16,33.06,16.03l3.26.59,1.44,3,14.42,30.42h3.98l8.69-21.53h18.89l10.42,21.53ZM941.7,584.12h0s.01,0,.02,0c0,0-.01,0-.02,0Z"/>
    <path class="cls-5" d="M348,458.27c-1.91-.23-3.85-.31-5.79-.24-4.66.15-9.38,1.17-13.92,3.12-14.21,6.11-23.39,20.12-23.33,35.58,0,1.09,0,2.16.15,3.23-.18-.02-.37-.04-.55-.05-.46-.04-.92-.06-1.38-.06-2.58,0-5.03.56-7.23,1.57-5.93,2.73-10.05,8.72-10.06,15.67,0,4.62,1.84,9.06,5.14,12.31h70.39c-3.77-20.1-9.54-50.86-13.42-71.13Z"/>
  </g>
</svg>