<?xml version="1.0" encoding="UTF-8" standalone="no"?>
<svg
   xmlns:dc="http://purl.org/dc/elements/1.1/"
   xmlns:cc="http://creativecommons.org/ns#"
   xmlns:rdf="http://www.w3.org/1999/02/22-rdf-syntax-ns#"
   xmlns:svg="http://www.w3.org/2000/svg"
   xmlns="http://www.w3.org/2000/svg"
   version="1.1"
   id="svg2"
   xml:space="preserve"
   width="1056"
   height="816"
   viewBox="0 0 1056 816"><metadata
     id="metadata8"><rdf:RDF><cc:Work
         rdf:about=""><dc:format>image/svg+xml</dc:format><dc:type
           rdf:resource="http://purl.org/dc/dcmitype/StillImage" /><dc:title></dc:title></cc:Work></rdf:RDF></metadata><defs
     id="defs6"><clipPath
       clipPathUnits="userSpaceOnUse"
       id="clipPath18"><path
         d="M 0,612 H 792 V 0 H 0 Z"
         id="path16" /></clipPath><clipPath
       clipPathUnits="userSpaceOnUse"
       id="clipPath4331"><path
         d="m 230,841 0,-841 136,0 0,841 -136,0 z"
         id="path4333" /></clipPath><clipPath
       clipPathUnits="userSpaceOnUse"
       id="clipPath4337"><path
         d="m 366.7652,841.9441 0,-840.913996 -136.7652,0 0,840.913996 136.7652,0 z"
         id="path4339" /></clipPath><clipPath
       clipPathUnits="userSpaceOnUse"
       id="clipPath4343"><path
         d="m 0,0 595.29,0 0,841.89 L 0,841.89 0,0 Z"
         id="path4345" /></clipPath><clipPath
       clipPathUnits="userSpaceOnUse"
       id="clipPath4357"><path
         d="m 230,841 0,-841 136,0 0,841 -136,0 z"
         id="path4359" /></clipPath><clipPath
       clipPathUnits="userSpaceOnUse"
       id="clipPath4363"><path
         d="m 0,0 595.29,0 0,841.89 L 0,841.89 0,0 Z"
         id="path4365" /></clipPath><clipPath
       clipPathUnits="userSpaceOnUse"
       id="clipPath4385"><path
         d="m 230,841 0,-841 136,0 0,841 -136,0 z"
         id="path4387" /></clipPath><clipPath
       clipPathUnits="userSpaceOnUse"
       id="clipPath4391"><path
         d="m 366.7652,841.9441 0,-840.913996 -136.7652,0 0,840.913996 136.7652,0 z"
         id="path4393" /></clipPath><clipPath
       clipPathUnits="userSpaceOnUse"
       id="clipPath4397"><path
         d="m 0,0 595.29,0 0,841.89 L 0,841.89 0,0 Z"
         id="path4399" /></clipPath><clipPath
       clipPathUnits="userSpaceOnUse"
       id="clipPath4409"><path
         d="m 230,841 0,-841 136,0 0,841 -136,0 z"
         id="path4411" /></clipPath><clipPath
       clipPathUnits="userSpaceOnUse"
       id="clipPath4415"><path
         d="m 0,0 595.29,0 0,841.89 L 0,841.89 0,0 Z"
         id="path4417" /></clipPath></defs><g
     style="display:none"
     id="layer5"><path
       d="m 149.07505,455.91288 -0.10937,0 0,33.32512 -32.402,0 0,23.762 56.16287,0 0,-57.08712 -23.6515,0"
       style="display:inline;fill:#4566b5;fill-opacity:1;fill-rule:nonzero;stroke:none"
       id="path4347" /><path
       d="m 25.5308,398.20637 0,-32.40087 33.326375,0 0,-23.762 -57.088375,0 0,56.16287 23.762,0"
       style="display:inline;fill:#4566b5;fill-opacity:1;fill-rule:nonzero;stroke:none"
       id="path4349" /><path
       d="m 25.5308,489.238 0,-33.32513 -23.762,0 0,57.08713 57.088375,0 0,-23.762 -33.326375,0"
       style="display:inline;fill:#4566b5;fill-opacity:1;fill-rule:nonzero;stroke:none"
       id="path4351" /><path
       d="m 148.96568,365.8055 0,32.40087 23.76087,0 0,-56.16287 -56.16287,0 0,23.762 32.402,0"
       style="display:inline;fill:#4566b5;fill-opacity:1;fill-rule:nonzero;stroke:none"
       id="path4367" /><path
       d="m 116.56368,488.86312 -34.040005,-34.03875 -21.82025,0 34.413625,34.41363 -36.259875,0 0,23.762 57.706505,0 0,-23.762 0.37475,0 -0.37475,-0.37488"
       style="display:inline;fill:#67ccd3;fill-opacity:1;fill-rule:nonzero;stroke:none"
       id="path4401" /><path
       d="M 58.857175,431.159 25.5308,397.8315 l 0,0.37487 -23.762,0 0,57.7065 23.762,0 0,-36.26237 33.326375,33.32762 1.393375,1.39338 0,-21.82025 -1.393375,-1.39225"
       style="display:inline;fill:#67ccd3;fill-opacity:1;fill-rule:nonzero;stroke:none"
       id="path4403" /><path
       d="m 148.96568,398.20637 0,35.778 -33.7955,-33.79674 0,21.82025 33.7955,33.79675 0.10937,0.10825 23.6515,0 0,-57.7065 -23.76087,0"
       style="display:inline;fill:#67ccd3;fill-opacity:1;fill-rule:nonzero;stroke:none"
       id="path4419" /><path
       d="m 80.785675,365.8055 35.777995,0 0,-23.762 -57.706495,0 0,23.6525 0.109375,0.1095 34.09825,34.09813 21.82012,0 -1.69837,-1.69725 -32.400875,-32.40088"
       style="display:inline;fill:#67ccd3;fill-opacity:1;fill-rule:nonzero;stroke:none"
       id="path4421" /></g><g
     id="g10"
     transform="matrix(2.6614687,0,0,-2.6614687,-513.90232,1241.9817)"><g
       id="g12"><g
         id="g14"
         clip-path="url(#clipPath18)"><g
           id="g20"
           transform="translate(290.1978,311.0264)" /><g
           id="g24"
           transform="translate(307.6685,305.1602)" /><g
           id="g28"
           transform="translate(353.7461,320.1865)" /><g
           id="g32"
           transform="translate(373.979,312.8325)" /><g
           id="g36"
           transform="translate(415.8691,313.3218)" /><g
           id="g40"
           transform="translate(462.7334,334.8726)" /><g
           id="g44"
           transform="translate(488.875,326.0312)" /><g
           id="g48"
           transform="translate(518.7578,329.1343)" /><g
           id="g54"
           transform="translate(556.9277,315.957)" /><g
           id="g58"
           transform="translate(596.6289,334.8726)" /><g
           id="g62"
           transform="translate(282.5952,279.8555)" /><g
           id="g66"
           transform="translate(304.7783,284.9902)" /><g
           id="g70"
           transform="translate(326.6279,287.0518)" /><g
           id="g74"
           transform="translate(343.188,285.1807)" /><g
           id="g78"
           transform="translate(354.9819,280.8682)" /><g
           id="g82"
           transform="translate(375.521,290.0059)" /><g
           id="g88"
           transform="translate(402.4219,293.2227)" /><g
           id="g92"
           transform="translate(421.0547,285.0498)" /><g
           id="g96"
           transform="translate(445.835,293.2227)" /><g
           id="g100"
           transform="translate(461.7275,284.9902)" /><g
           id="g104"
           transform="translate(473.0693,280.8682)" /><g
           id="g108"
           transform="translate(498.207,293.2227)" /><g
           id="g112"
           transform="translate(516.0176,281.1426)" /><g
           id="g116"
           transform="translate(530.708,288.2666)" /><g
           id="g120"
           transform="translate(547.459,290.0059)" /><g
           id="g126"
           transform="translate(575.4551,284.9902)" /><g
           id="g130"
           transform="translate(594.04,293.2227)" /><g
           id="g134"
           transform="translate(203.5243,296.2955)"><path
             d="m 0,0 -9.15,0 0,-21.346 21.345,0 0,9.149 -12.195,0 z"
             style="fill:#002395;fill-opacity:1;fill-rule:nonzero;stroke:none"
             id="path136" /></g><g
           id="g138"
           transform="translate(249.2622,296.2272)"><path
             d="m 0,0 0,-12.129 -12.129,0 -0.067,0.067 0,-9.216 21.345,0 0,21.346 -9.217,0 z"
             style="fill:#ed2939;fill-opacity:1;fill-rule:nonzero;stroke:none"
             id="path140" /></g><g
           id="g142"
           transform="translate(194.3746,317.6375)"><path
             d="m 0,0 9.218,0 -0.068,0.07 0,12.127 0,0.002 12.128,0 0.067,-0.068 0,9.216 -21.345,0 z"
             style="fill:#002395;fill-opacity:1;fill-rule:nonzero;stroke:none"
             id="path144" /></g><g
           id="g146"
           transform="translate(237.0657,338.9849)"><path
             d="m 0,0 0,-9.148 12.196,0 0,-12.199 9.149,0 0,21.347 z"
             style="fill:#ed2939;fill-opacity:1;fill-rule:nonzero;stroke:none"
             id="path148" /></g><g
           id="g150"
           transform="translate(235.9363,317.6375)"><path
             d="m 0,0 -12.199,12.199 13.328,0 0,9.148 -21.346,0 0,-9.216 L -8.086,0 Z"
             style="fill:#e6e6e6;fill-opacity:1;fill-rule:nonzero;stroke:none"
             id="path152" /></g><g
           id="g154"
           transform="translate(224.9352,296.2955)"><path
             d="m 0,0 -8.085,0 10.107,-10.108 2.091,-2.089 -4.179,0 -9.15,0 0,-9.149 21.346,0 0,9.216 -6.065,6.066 z"
             style="fill:#e6e6e6;fill-opacity:1;fill-rule:nonzero;stroke:none"
             id="path156" /></g><g
           id="g158"
           transform="translate(249.2622,317.6375)"><path
             d="m 0,0 0,-9.147 0,-4.178 -2.09,2.09 -10.106,10.106 0,-8.086 6.063,-6.063 6.065,-6.064 9.217,0 0,21.342 z"
             style="fill:#e6e6e6;fill-opacity:1;fill-rule:nonzero;stroke:none"
             id="path160" /></g><g
           id="g162"
           transform="translate(215.7196,305.5123)"><path
             d="m 0,0 -12.127,12.125 -9.218,0 0,-21.342 9.15,0 0,13.327 L 0,-8.086 Z"
             style="fill:#e6e6e6;fill-opacity:1;fill-rule:nonzero;stroke:none"
             id="path164" /></g></g></g></g><g
     style="display:inline"
     id="layer4"><g
       id="g4323"
       transform="matrix(1.25,0,0,-1.25,155.5,954.26881)"><g
         id="g4325" /><g
         id="g4327"
         transform="matrix(0,1,-1,0,719.01505,123.01505)"><g
           id="g4329"
           clip-path="url(#clipPath4331)"><g
             id="g4335"
             clip-path="url(#clipPath4337)"><g
               id="g4341"
               clip-path="url(#clipPath4343)" /></g></g></g><g
         id="g4353"
         transform="matrix(0,1,-1,0,719.01505,123.01505)"><g
           id="g4355"
           clip-path="url(#clipPath4357)"><g
             id="g4361"
             clip-path="url(#clipPath4363)"><path
               d="m 347.8432,796.3293 -0.0876,0 0,-0.0875 0.0876,0.0875"
               style="fill:#67ccd3;fill-opacity:1;fill-rule:nonzero;stroke:none"
               id="path4369" /><path
               d="m 275.6697,724.2425 0,-0.0875 0.0866,0.0875 -0.0866,0"
               style="fill:#67ccd3;fill-opacity:1;fill-rule:nonzero;stroke:none"
               id="path4371" /><path
               d="m 276.5405,795.2146 0.3623,0 1.1147,1.1147 -2.3478,0 0,-2.3478 0.8708,0.8708 0,0.3623"
               style="fill:#ffffff;fill-opacity:1;fill-rule:nonzero;stroke:none"
               id="path4373" /><path
               d="m 320.4771,751.5071 0,-0.2282 -0.2272,0 -1.1148,-1.1148 2.6998,0 0,2.7017 -1.3578,-1.3587"
               style="fill:#ffffff;fill-opacity:1;fill-rule:nonzero;stroke:none"
               id="path4375" /><path
               d="m 320.4771,751.2789 0,0.2282 -0.2272,-0.2282 0.2272,0"
               style="fill:#ffffff;fill-opacity:1;fill-rule:nonzero;stroke:none"
               id="path4377" /><path
               d="m 276.5405,795.2146 0,-0.3623 0.3623,0.3623 -0.3623,0"
               style="fill:#ffffff;fill-opacity:1;fill-rule:nonzero;stroke:none"
               id="path4379" /></g></g></g><g
         id="g4381"
         transform="matrix(0,1,-1,0,719.01505,123.01505)"><g
           id="g4383"
           clip-path="url(#clipPath4385)"><g
             id="g4389"
             clip-path="url(#clipPath4391)"><g
               id="g4395"
               clip-path="url(#clipPath4397)" /></g></g></g><g
         id="g4405"
         transform="matrix(0,1,-1,0,719.01505,123.01505)"><g
           id="g4407"
           clip-path="url(#clipPath4409)"><g
             id="g4413"
             clip-path="url(#clipPath4415)"><path
               d="m 346.1883,615.9432 -10.451,8.825 c 4.7971,3.9403 7.7959,9.7664 7.7959,15.0785 0,9.5095 -7.5398,16.7065 -17.392,16.7065 -10.0244,0 -17.6489,-7.197 -17.6489,-16.7065 0,-5.055 2.7417,-10.8803 7.0257,-15.0785 l -9.4247,-8.9107 c -6.5964,6.426 -10.967,15.9354 -10.967,24.7594 0,18.0774 13.2803,31.529 30.8436,31.529 17.3062,0 30.3285,-13.7943 30.3285,-32.043 0,-8.9097 -3.9412,-18.1621 -10.1101,-24.1597"
               style="fill:#1b181a;fill-opacity:1;fill-rule:nonzero;stroke:none"
               id="path4423" /><path
               d="m 308.577,566.078 -12.7643,0 0,40.6957 59.9716,0 0,-15.2499 -47.2073,0 0,-25.4458"
               style="fill:#1b181a;fill-opacity:1;fill-rule:nonzero;stroke:none"
               id="path4425" /><path
               d="m 325.7985,545 c -10.1101,0 -17.906,-7.7958 -17.906,-16.9626 0,-9.2533 7.7959,-16.6208 17.906,-16.6208 10.1092,0 17.7347,7.3675 17.7347,16.6208 0,9.2524 -7.6255,16.9626 -17.7347,16.9626 z m 0.0857,-49.2627 c -17.4776,0 -30.7579,13.8791 -30.7579,32.4705 0,18.5058 13.1946,32.3858 30.7579,32.3858 17.4776,0 30.4142,-13.88 30.4142,-32.3858 0,-18.5914 -13.0223,-32.4705 -30.4142,-32.4705"
               style="fill:#1b181a;fill-opacity:1;fill-rule:nonzero;stroke:none"
               id="path4427" /><path
               d="m 321.0005,431.5646 c -15.8497,0 -25.8742,10.5376 -25.8742,27.3298 0,16.8779 10.0245,27.6725 25.8742,27.6725 l 34.7838,0 0,-15.25 -34.7838,0 c -8.1395,0 -13.108,-5.2254 -13.108,-12.5082 0,-7.197 4.9685,-12.0798 13.108,-12.0798 l 34.7838,0 0,-15.1643 -34.7838,0"
               style="fill:#1b181a;fill-opacity:1;fill-rule:nonzero;stroke:none"
               id="path4429" /><path
               d="m 307.9782,403.203 0,-10.8812 c 0,-9.3381 7.197,-16.0211 17.7346,-16.0211 10.6233,0 17.906,7.0257 17.906,16.7056 l 0,10.1967 -35.6406,0 z m 47.8061,-10.5385 c 0,-18.8485 -12.1655,-31.8717 -29.9858,-31.8717 -17.7346,0 -29.9858,13.1936 -29.9858,32.4714 l 0,25.1888 59.9716,0 0,-25.7885"
               style="fill:#1b181a;fill-opacity:1;fill-rule:nonzero;stroke:none"
               id="path4431" /><path
               d="m 295.8127,286.6804 36.9258,27.5877 -36.9258,0 0,14.3084 59.9716,0 0,-13.4516 -37.0115,-27.6725 37.0115,0 0,-14.2217 -59.9716,0 0,13.4497"
               style="fill:#1b181a;fill-opacity:1;fill-rule:nonzero;stroke:none"
               id="path4433" /><path
               d="m 340.6201,232.2742 -22.1891,8.7393 0,-17.3063 22.1891,8.567 z m -33.7557,13.1936 -11.0517,4.3706 0,15.6783 59.9716,-25.8732 0,-15.6792 -59.9716,-25.2735 0,16.2772 11.0517,4.2839 0,26.2159"
               style="fill:#1b181a;fill-opacity:1;fill-rule:nonzero;stroke:none"
               id="path4435" /><path
               d="m 343.5332,169.6437 -47.7205,0 0,15.25 47.7205,0 0,17.906 12.3368,0 0,-51.2343 -12.3368,0 0,18.0783"
               style="fill:#1b181a;fill-opacity:1;fill-rule:nonzero;stroke:none"
               id="path4437" /><path
               d="m 355.7843,142.9109 0,-15.2499 -59.9725,0 0,15.2499 59.9725,0 z"
               style="fill:#1b181a;fill-opacity:1;fill-rule:nonzero;stroke:none"
               id="path4439" /><path
               d="m 295.8127,96.30337 59.9716,23.30283 0,-16.2781 -44.1219,-15.3356 44.1219,-15.33562 0,-15.67834 -59.9716,23.56081 0,15.76402"
               style="fill:#1b181a;fill-opacity:1;fill-rule:nonzero;stroke:none"
               id="path4441" /><path
               d="m 343.7902,33.6729 -11.9085,0 0,-28.61588 -11.995,0 0,28.61588 -12.0808,0 0,-32.642796 -11.9932,0 0,47.892736 59.9716,0 0,-46.950266 -11.9941,0 0,31.700326"
               style="fill:#1b181a;fill-opacity:1;fill-rule:nonzero;stroke:none"
               id="path4443" /><path
               d="m 264.4607,639.3755 -6.2481,5.2758 c 2.8684,2.3562 4.6602,5.8383 4.6602,9.014 0,5.6846 -4.5065,9.9872 -10.396,9.9872 -5.992,0 -10.5506,-4.3026 -10.5506,-9.9872 0,-3.0221 1.639,-6.5042 4.2001,-9.014 l -5.6334,-5.3261 c -3.944,3.8416 -6.5554,9.5253 -6.5554,14.8002 0,10.8067 7.9374,18.8475 18.4368,18.8475 10.3449,0 18.1305,-8.2457 18.1305,-19.1539 0,-5.327 -2.3571,-10.858 -6.0441,-14.4435"
               style="fill:#1b181a;fill-opacity:1;fill-rule:nonzero;stroke:none"
               id="path4445" /><path
               d="m 252.2719,628.8221 c -6.0441,0 -10.7043,-4.6611 -10.7043,-10.1399 0,-5.5319 4.6602,-9.936 10.7043,-9.936 6.0432,0 10.6009,4.4041 10.6009,9.936 0,5.5309 -4.5577,10.1399 -10.6009,10.1399 z m 0.0512,-29.4485 c -10.4482,0 -18.3856,8.2969 -18.3856,19.4101 0,11.0628 7.8871,19.3588 18.3856,19.3588 10.4473,0 18.1817,-8.296 18.1817,-19.3588 0,-11.1132 -7.7856,-19.4101 -18.1817,-19.4101"
               style="fill:#1b181a;fill-opacity:1;fill-rule:nonzero;stroke:none"
               id="path4447" /><path
               d="m 234.3464,563.2115 23.3028,0.0512 -19.7174,8.6042 0,5.9407 19.7174,8.6033 -23.3028,0 0,8.1433 35.9013,0 0,-9.9863 -21.3555,-9.7311 21.3555,-9.7311 0,-9.935 -35.9013,0 0,8.0408"
               style="fill:#1b181a;fill-opacity:1;fill-rule:nonzero;stroke:none"
               id="path4449" /><path
               d="m 251.606,538.8265 0,-6.0423 c 0,-3.9952 1.9977,-6.2992 5.788,-6.2992 3.7373,0 5.6325,2.304 5.6325,6.2992 l 0,6.0423 -11.4205,0 z m 18.5915,-6.5033 c 0,-9.1676 -4.5075,-14.4425 -12.4971,-14.4425 -8.3993,0 -13.2644,5.2749 -13.2644,14.4425 l 0,6.5033 -10.0896,0 0,9.1173 35.8511,0 0,-15.6206"
               style="fill:#1b181a;fill-opacity:1;fill-rule:nonzero;stroke:none"
               id="path4451" /><path
               d="m 249.4035,480.8487 c -9.474,0 -15.466,6.2993 -15.466,16.3377 0,10.0897 5.992,16.5417 15.466,16.5417 l 20.794,0 0,-9.1165 -20.794,0 c -4.8651,0 -7.8359,-3.1235 -7.8359,-7.4764 0,-4.3026 2.9708,-7.2212 7.8359,-7.2212 l 20.794,0 0,-9.0653 -20.794,0"
               style="fill:#1b181a;fill-opacity:1;fill-rule:nonzero;stroke:none"
               id="path4453" /><path
               d="m 262.8728,457.6949 -28.5264,0 0,9.1164 28.5264,0 0,10.7034 7.3749,0 0,-30.6256 -7.3749,0 0,10.8058"
               style="fill:#1b181a;fill-opacity:1;fill-rule:nonzero;stroke:none"
               id="path4455" /><path
               d="m 270.1975,442.9916 0,-9.1155 -35.8511,0 0,9.1155 35.8511,0 z"
               style="fill:#1b181a;fill-opacity:1;fill-rule:nonzero;stroke:none"
               id="path4457" /><path
               d="m 234.3464,401.6599 22.0744,16.4913 -22.0744,0 0,8.553 35.8511,0 0,-8.0408 -22.1248,-16.5426 22.1248,0 0,-8.5008 -35.8511,0 0,8.0399"
               style="fill:#1b181a;fill-opacity:1;fill-rule:nonzero;stroke:none"
               id="path4459" /><path
               d="m 252.5792,354.7431 -13.9815,0 c -2.7147,3.8407 -4.6602,9.8848 -4.6602,14.9035 0,10.9083 7.8871,19.1549 18.3344,19.1549 10.397,0 18.2329,-8.4515 18.2329,-19.7695 0,-5.327 -2.0498,-10.9595 -5.327,-14.6465 l -6.1969,5.1212 c 2.4074,2.6113 3.8919,6.248 3.8919,9.5765 0,5.8895 -4.609,10.397 -10.6009,10.397 -6.0944,0 -10.7043,-4.5587 -10.7043,-10.4995 0,-1.8439 0.6659,-4.1992 1.7425,-6.3505 l 9.2691,0 0,-7.8871"
               style="fill:#1b181a;fill-opacity:1;fill-rule:nonzero;stroke:none"
               id="path4461" /><path
               d="m 251.606,327.3882 0,-6.0432 c 0,-3.9952 1.9977,-6.3002 5.788,-6.3002 3.7373,0 5.6325,2.305 5.6325,6.3002 l 0,6.0432 -11.4205,0 z m 18.5915,-6.5041 c 0,-9.1677 -4.5075,-14.4426 -12.4971,-14.4426 -8.3993,0 -13.2644,5.2749 -13.2644,14.4426 l 0,6.5041 -10.0896,0 0,9.1155 35.8511,0 0,-15.6196"
               style="fill:#1b181a;fill-opacity:1;fill-rule:nonzero;stroke:none"
               id="path4463" /><path
               d="m 261.1313,288.3064 -13.2644,5.2246 0,-10.3457 13.2644,5.1211 z m -20.1783,7.8872 -6.6066,2.6123 0,9.3725 35.8511,-15.4669 0,-9.3716 -35.8511,-15.1084 0,9.7301 6.6066,2.5611 0,15.6709"
               style="fill:#1b181a;fill-opacity:1;fill-rule:nonzero;stroke:none"
               id="path4465" /><path
               d="m 251.606,248.8671 c 0,-3.9431 1.9977,-6.2481 5.788,-6.2481 3.7373,0 5.6325,2.305 5.6325,6.2481 l 0,6.9139 -11.4205,0 0,-6.9139 z m -7.17,-0.2561 0,7.17 -10.0896,0 0,9.1164 35.8511,0 0,-16.0303 c 0,-9.475 -4.5075,-14.9035 -12.4971,-14.9035 -5.4797,0 -9.4228,2.3049 -11.5229,6.5041 l -11.8311,-7.5286 0,10.3458 10.0896,5.3261"
               style="fill:#1b181a;fill-opacity:1;fill-rule:nonzero;stroke:none"
               id="path4467" /><path
               d="m 270.1975,227.8133 0,-9.1155 -35.8511,0 0,9.1155 35.8511,0 z"
               style="fill:#1b181a;fill-opacity:1;fill-rule:nonzero;stroke:none"
               id="path4469-5" /><path
               d="m 266.612,183.6141 -7.1198,3.4309 c 2.2035,3.7894 3.7392,8.553 3.7392,11.4716 0,2.3562 -0.8699,3.9441 -2.6123,3.9441 -6.1968,0 -2.6626,-18.95 -15.6197,-18.95 -7.17,0 -10.9604,6.3505 -10.9604,14.341 0,5.991 2.2538,12.1376 5.7368,16.388 l 7.0164,-3.5343 c -3.227,-3.687 -5.3783,-9.2179 -5.3783,-12.9571 0,-2.8674 1.0766,-4.6602 3.1245,-4.6602 6.3505,0 2.5611,18.9491 15.2621,18.9491 6.6066,0 10.8058,-5.6846 10.8058,-14.2889 0,-5.1715 -1.5869,-10.4482 -3.9943,-14.1342"
               style="fill:#1b181a;fill-opacity:1;fill-rule:nonzero;stroke:none"
               id="path4471" /></g></g></g></g></g><g
     style="display:none"
     id="layer1"><path
       d="m 713.64821,350.72868 17.65086,0 0,79.07756 -17.65086,0 -37.67044,-49.55123 0,49.55123 -17.65086,0 0,-79.07756 16.51709,0 38.80421,50.90857 z"
       style="fill:#373535;fill-opacity:1;fill-rule:nonzero;stroke:none"
       id="path42" /><path
       d="m 783.22327,374.25977 -9.95657,22.96583 19.79867,0 z m 23.87071,55.54753 -7.35362,-17.08131 -33.14861,0 -7.35363,17.08131 -18.77933,0 34.16795,-79.07756 17.0813,0 34.16527,79.07756 z"
       style="fill:#373535;fill-opacity:1;fill-rule:nonzero;stroke:none"
       id="path46" /><path
       d="m 862.75541,366.00098 0,63.80607 -17.65088,0 0,-63.80607 -22.3989,0 0,-15.2715 62.44869,0 0,15.2715 z"
       style="fill:#373535;fill-opacity:1;fill-rule:nonzero;stroke:none"
       id="path50" /><path
       d="m 898.04968,350.72762 17.65086,0 0,79.07756 -17.65086,0 z"
       style="fill:#373535;fill-opacity:1;fill-rule:nonzero;stroke:none"
       id="path52" /><path
       d="m 964.34342,401.07196 20.13667,-50.34434 19.12261,0 -31.79122,79.08022 -14.9335,0 -31.79123,-79.08022 19.12264,0 z"
       style="fill:#373535;fill-opacity:1;fill-rule:nonzero;stroke:none"
       id="path56" /><path
       d="m 1070.0068,350.72868 0,15.72395 -39.3684,0 0,16.29086 35.4109,0 0,15.04795 -35.4109,0 0,16.40263 40.614,0 0,15.61217 -58.2648,0 0,-79.07756 z"
       style="fill:#373535;fill-opacity:1;fill-rule:nonzero;stroke:none"
       id="path60" /><path
       d="m 254.45008,414.19458 c 8.67372,0 15.76388,-3.43063 21.27046,-10.29455 l 11.31125,11.65191 c -8.97447,10.10825 -19.55382,15.15973 -31.7327,15.15973 -12.18155,0 -22.21262,-3.84584 -30.09324,-11.53748 -7.88326,-7.69429 -11.82224,-17.40333 -11.82224,-29.13242 0,-11.72645 4.01617,-21.51266 12.04848,-29.35868 8.03231,-7.84334 17.85579,-11.76369 29.47043,-11.76369 12.972,0 23.83345,4.93968 32.58171,14.81907 l -10.97324,12.44501 c -5.5811,-6.93844 -12.51954,-10.40899 -20.81533,-10.40899 -6.63771,0 -12.31464,2.16909 -17.02809,6.50462 -4.71346,4.3382 -7.06886,10.18279 -7.06886,17.53643 0,7.35363 2.22232,13.25412 6.67495,17.70409 4.44733,4.45263 9.84213,6.67495 16.17642,6.67495"
       style="fill:#373535;fill-opacity:1;fill-rule:nonzero;stroke:none"
       id="path22" /><path
       d="m 300.94781,429.8073 0,-79.07755 17.64822,0 0,63.35093 33.71281,0 0,15.72662 z"
       style="fill:#373535;fill-opacity:1;fill-rule:nonzero;stroke:none"
       id="path26" /><path
       d="m 423.58189,389.81529 c 0,-7.05024 -2.26224,-13.06781 -6.78675,-18.04477 -4.52449,-4.97695 -10.08961,-7.4654 -16.68741,-7.4654 -6.60043,0 -12.16292,2.48845 -16.6874,7.4654 -4.52717,4.97696 -6.78941,10.99453 -6.78941,18.04477 0,7.05288 2.26224,13.04918 6.78941,17.98887 4.52448,4.93968 10.08697,7.40951 16.6874,7.40951 6.5978,0 12.16292,-2.46983 16.68741,-7.40951 4.52451,-4.93969 6.78675,-10.93599 6.78675,-17.98887 m 5.9963,29.07387 c -7.99507,7.8061 -17.83717,11.70781 -29.52634,11.70781 -11.69184,0 -21.53662,-3.90171 -29.52901,-11.70781 -7.99504,-7.80609 -11.98992,-17.51512 -11.98992,-29.12977 0,-11.61466 3.99488,-21.32634 11.98992,-29.13244 7.99239,-7.80608 17.83717,-11.7078 29.52901,-11.7078 11.68917,0 21.53127,3.90172 29.52634,11.7078 7.9924,7.8061 11.99257,17.51778 11.99257,29.13244 0,11.61465 -4.00017,21.32368 -11.99257,29.12977"
       style="fill:#373535;fill-opacity:1;fill-rule:nonzero;stroke:none"
       id="path30" /><path
       d="m 477.43112,409.38772 c 2.94093,3.65951 6.90118,5.48794 11.87549,5.48794 4.9796,0 8.92123,-1.82843 11.82756,-5.48794 2.901,-3.65952 4.35416,-8.65511 4.35416,-14.98938 l 0,-43.6694 17.6482,0 0,44.23362 c 0,11.46561 -3.1698,20.26973 -9.50143,26.41507 -6.33697,6.14801 -14.44646,9.21933 -24.32849,9.21933 -9.87938,0 -18.00484,-3.08997 -24.3764,-9.27522 -6.37423,-6.18259 -9.56,-14.97075 -9.56,-26.35918 l 0,-44.23362 17.6482,0 0,43.6694 c 0,6.33427 1.47179,11.32986 4.41271,14.98938"
       style="fill:#373535;fill-opacity:1;fill-rule:nonzero;stroke:none"
       id="path34" /><path
       d="m 588.92033,408.08547 c 4.33553,-4.07205 6.50463,-9.99116 6.50463,-17.75998 0,-7.76884 -2.1691,-13.74648 -6.50463,-17.93298 -4.3382,-4.18383 -10.99186,-6.2784 -19.96635,-6.2784 l -9.8421,0 0,48.07941 11.19946,0 c 8.06957,0 14.27079,-2.03601 18.60899,-6.10805 M 601.8737,361.0786 c 7.53995,6.9012 11.31391,16.5011 11.31391,28.79443 0,12.29333 -3.67815,22.02365 -11.02913,29.18832 -7.35363,7.16469 -18.57439,10.74702 -33.65959,10.74702 l -27.03787,0 0,-79.08023 27.94543,0 c 14.10312,0 24.92465,3.45193 32.46725,10.35046"
       style="fill:#373535;fill-opacity:1;fill-rule:nonzero;stroke:none"
       id="path38" /><path
       d="m 234.216,497.15499 c 4.86251,0 8.83607,-1.92426 11.92071,-5.77007 l 6.34229,6.53122 c -5.03017,5.66628 -10.95994,8.49808 -17.78661,8.49808 -6.82932,0 -12.45301,-2.15579 -16.86839,-6.47003 -4.41804,-4.31158 -6.62704,-9.75428 -6.62704,-16.3281 0,-6.5765 2.24892,-12.05911 6.75214,-16.45852 4.50319,-4.39676 10.00978,-6.59515 16.51973,-6.59515 7.27114,0 13.36058,2.77061 18.26567,8.30911 l -6.15331,6.97572 c -3.12724,-3.89106 -7.0183,-5.83394 -11.66789,-5.83394 -3.72073,0 -6.90386,1.2163 -9.54403,3.64621 -2.64283,2.43259 -3.96291,5.7062 -3.96291,9.82881 0,4.12261 1.24555,7.43082 3.74202,9.92462 2.49378,2.49381 5.51721,3.74204 9.06762,3.74204"
       style="fill:#373535;fill-opacity:1;fill-rule:nonzero;stroke:none"
       id="path64" /><path
       d="m 293.25563,483.48915 c 0,-3.95229 -1.26952,-7.32438 -3.80589,-10.11625 -2.53638,-2.78923 -5.65296,-4.18384 -9.3524,-4.18384 -3.69944,0 -6.81868,1.39461 -9.35508,4.18384 -2.53637,2.79187 -3.80323,6.16396 -3.80323,10.11625 0,3.95227 1.26686,7.31372 3.80323,10.08165 2.5364,2.77057 5.65564,4.15454 9.35508,4.15454 3.69944,0 6.81602,-1.38397 9.3524,-4.15454 2.53637,-2.76793 3.80589,-6.12938 3.80589,-10.08165 m 3.36144,16.29618 c -4.48192,4.37811 -9.99913,6.56582 -16.55168,6.56582 -6.55252,0 -12.07243,-2.18771 -16.55167,-6.56582 -4.4819,-4.37547 -6.72288,-9.81551 -6.72288,-16.32812 0,-6.50995 2.24098,-11.95533 6.72288,-16.32812 4.47924,-4.37811 9.99915,-6.56585 16.55167,-6.56585 6.55255,0 12.06976,2.18774 16.55168,6.56585 4.47925,4.37279 6.72287,9.81817 6.72287,16.32812 0,6.51261 -2.24362,11.95265 -6.72287,16.32812"
       style="fill:#373535;fill-opacity:1;fill-rule:nonzero;stroke:none"
       id="path68" /><path
       d="m 351.40767,478.00226 -11.9846,24.22734 -5.90048,0 -11.92071,-24.22734 0,27.90283 -9.89268,0 0,-44.32676 13.3792,0 11.41504,24.35245 11.47892,-24.35245 13.31799,0 0,44.32676 -9.89268,0 z"
       style="fill:#373535;fill-opacity:1;fill-rule:nonzero;stroke:none"
       id="path72" /><path
       d="m 395.48185,482.98214 c 1.1817,-1.33341 1.77519,-3.27628 1.77519,-5.83395 0,-2.55766 -0.7718,-4.37811 -2.31547,-5.45335 -1.54365,-1.0779 -3.94162,-1.62083 -7.19661,-1.62083 l -5.64497,0 0,14.90422 6.65899,0 c 3.29755,0 5.53852,-0.66538 6.72287,-1.99609 m 7.26048,-17.44062 c 3.1086,2.64285 4.66025,6.70158 4.66025,12.17622 0,5.47464 -1.59422,9.48015 -4.78533,12.01655 -3.19376,2.53636 -8.06691,3.80589 -14.61944,3.80589 l -5.89782,0 0,12.36517 -9.8927,0 0,-44.32674 15.66542,0 c 6.80537,0 11.76369,1.32009 14.86962,3.96291"
       style="fill:#373535;fill-opacity:1;fill-rule:nonzero;stroke:none"
       id="path76" /><path
       d="m 481.5351,470.14001 0,35.76483 -9.89266,0 0,-35.76483 -12.55682,0 0,-8.56195 35.0063,0 0,8.56195 z"
       style="fill:#373535;fill-opacity:1;fill-rule:nonzero;stroke:none"
       id="path84" /><path
       d="m 553.13103,461.5786 9.89267,0 0,44.32675 -9.89267,0 -21.11876,-27.77508 0,27.77508 -9.89267,0 0,-44.32675 9.25924,0 21.75219,28.53893 z"
       style="fill:#373535;fill-opacity:1;fill-rule:nonzero;stroke:none"
       id="path90" /><path
       d="m 602.72165,483.33051 9.95389,0 0,15.72663 c -4.39675,4.90508 -10.48354,7.35628 -18.263,7.35628 -6.50996,0 -11.97394,-2.15579 -16.39199,-6.47001 -4.41804,-4.31158 -6.62705,-9.7543 -6.62705,-16.32812 0,-6.57382 2.2516,-12.05912 6.75479,-16.45588 4.50057,-4.3994 9.93262,-6.59776 16.29884,-6.59776 6.35826,0 11.88613,2.09457 16.58096,6.28105 l -5.13664,7.42019 c -1.98811,-1.73528 -3.81656,-2.92762 -5.48528,-3.585 -1.67141,-0.65471 -3.47855,-0.98208 -5.42142,-0.98208 -3.76331,0 -6.93579,1.2775 -9.51209,3.83517 -2.57897,2.56034 -3.86977,5.92976 -3.86977,10.11625 0,4.18383 1.23491,7.53727 3.71009,10.05237 2.47515,2.51507 5.4214,3.7713 8.84671,3.7713 3.42265,0 6.27842,-0.65472 8.56196,-1.96417 z"
       style="fill:#373535;fill-opacity:1;fill-rule:nonzero;stroke:none"
       id="path94" /><path
       d="m 668.67365,461.5786 0,8.6897 -20.54655,0 0,9.5733 19.53253,0 0,8.68968 -19.53253,0 0,17.37407 -9.89534,0 0,-44.32675 z"
       style="fill:#373535;fill-opacity:1;fill-rule:nonzero;stroke:none"
       id="path98" /><path
       d="m 710.97102,483.48915 c 0,-3.95229 -1.26952,-7.32438 -3.80589,-10.11625 -2.53636,-2.78923 -5.65562,-4.18384 -9.3524,-4.18384 -3.69945,0 -6.81869,1.39461 -9.35506,4.18384 -2.53637,2.79187 -3.80589,6.16396 -3.80589,10.11625 0,3.95227 1.26952,7.31372 3.80589,10.08165 2.53637,2.77057 5.65561,4.15454 9.35506,4.15454 3.69678,0 6.81604,-1.38397 9.3524,-4.15454 2.53637,-2.76793 3.80589,-6.12938 3.80589,-10.08165 m 3.36146,16.29618 c -4.48193,4.37811 -9.99916,6.56582 -16.55169,6.56582 -6.55519,0 -12.06976,-2.18771 -16.55168,-6.56582 -4.48191,-4.37547 -6.72286,-9.81551 -6.72286,-16.32812 0,-6.50995 2.24095,-11.95533 6.72286,-16.32812 4.48192,-4.37811 9.99649,-6.56585 16.55168,-6.56585 6.55253,0 12.06976,2.18774 16.55169,6.56585 4.47924,4.37279 6.72019,9.81817 6.72019,16.32812 0,6.51261 -2.24095,11.95265 -6.72019,16.32812"
       style="fill:#373535;fill-opacity:1;fill-rule:nonzero;stroke:none"
       id="path102" /><path
       d="m 741.15688,494.45971 c 1.65012,2.052 3.86979,3.074 6.659,3.074 2.79188,0 4.99824,-1.022 6.62705,-3.074 1.62883,-2.05198 2.44057,-4.85186 2.44057,-8.40225 l 0,-24.47753 9.89534,0 0,24.79426 c 0,6.42744 -1.77786,11.3618 -5.32827,14.80574 -3.55039,3.4466 -8.09617,5.17122 -13.63469,5.17122 -5.53852,0 -10.09495,-1.73527 -13.66664,-5.2005 -3.57436,-3.46789 -5.35753,-8.39429 -5.35753,-14.77646 l 0,-24.79426 9.89268,0 0,24.47753 c 0,3.55039 0.82504,6.35027 2.47249,8.40225"
       style="fill:#373535;fill-opacity:1;fill-rule:nonzero;stroke:none"
       id="path106" /><path
       d="m 808.06009,461.5786 9.89268,0 0,44.32675 -9.89268,0 -21.11875,-27.77508 0,27.77508 -9.8927,0 0,-44.32675 9.25926,0 21.75219,28.53893 z"
       style="fill:#373535;fill-opacity:1;fill-rule:nonzero;stroke:none"
       id="path110" /><path
       d="m 855.46245,493.72939 c 2.42992,-2.28087 3.64623,-5.59971 3.64623,-9.95389 0,-4.35681 -1.21631,-7.70761 -3.64623,-10.05502 -2.43259,-2.3421 -6.16129,-3.51846 -11.19414,-3.51846 l -5.51456,0 0,26.95268 6.27575,0 c 4.52449,0 8.00036,-1.14176 10.43295,-3.42531 m 7.26315,-26.34852 c 4.22374,3.86976 6.33961,9.24859 6.33961,16.13913 0,6.89321 -2.05998,12.34657 -6.18259,16.36271 -4.12261,4.01616 -10.41165,6.02293 -18.86714,6.02293 l -15.15708,0 0,-44.32678 15.66542,0 c 7.90455,0 13.97271,1.93223 18.20178,5.80201"
       style="fill:#373535;fill-opacity:1;fill-rule:nonzero;stroke:none"
       id="path114" /><path
       d="m 894.5605,474.76909 -5.5811,12.87351 11.09831,0 z m 13.3792,31.13653 -4.11996,-9.5733 -18.58236,0 -4.12263,9.5733 -10.52609,0 19.15191,-44.32676 9.57597,0 19.14927,44.32676 z"
       style="fill:#373535;fill-opacity:1;fill-rule:nonzero;stroke:none"
       id="path118" /><path
       d="m 939.14275,470.14001 0,35.76483 -9.89532,0 0,-35.76483 -12.55682,0 0,-8.56195 35.00896,0 0,8.56195 z"
       style="fill:#373535;fill-opacity:1;fill-rule:nonzero;stroke:none"
       id="path122" /><path
       d="m 1013.6535,483.48915 c 0,-3.95229 -1.2695,-7.32438 -3.8058,-10.11625 -2.5365,-2.78923 -5.6557,-4.18384 -9.3525,-4.18384 -3.6994,0 -6.81868,1.39461 -9.35504,4.18384 -2.5364,2.79187 -3.80592,6.16396 -3.80592,10.11625 0,3.95227 1.26952,7.31372 3.80592,10.08165 2.53636,2.77057 5.65564,4.15454 9.35504,4.15454 3.6968,0 6.816,-1.38397 9.3525,-4.15454 2.5363,-2.76793 3.8058,-6.12938 3.8058,-10.08165 m 3.3615,16.29618 c -4.4819,4.37811 -9.9992,6.56582 -16.5517,6.56582 -6.55523,0 -12.06978,-2.18771 -16.5517,-6.56582 -4.48192,-4.37547 -6.72286,-9.81551 -6.72286,-16.32812 0,-6.50995 2.24094,-11.95533 6.72286,-16.32812 4.48192,-4.37811 9.99647,-6.56585 16.5517,-6.56585 6.5525,0 12.0698,2.18774 16.5517,6.56585 4.4792,4.37279 6.7203,9.81817 6.7203,16.32812 0,6.51261 -2.2411,11.95265 -6.7203,16.32812"
       style="fill:#373535;fill-opacity:1;fill-rule:nonzero;stroke:none"
       id="path128" /><path
       d="m 1063.1166,461.5786 9.8927,0 0,44.32675 -9.8927,0 -21.1187,-27.77508 0,27.77508 -9.8927,0 0,-44.32675 9.2593,0 21.7521,28.53893 z"
       style="fill:#373535;fill-opacity:1;fill-rule:nonzero;stroke:none"
       id="path132" /><path
       d="m 426.87095,494.45971 c 1.6501,2.052 3.86977,3.074 6.659,3.074 2.78923,0 4.99823,-1.022 6.62706,-3.074 1.62881,-2.05198 2.44056,-4.85186 2.44056,-8.40225 l 0,-24.47753 9.89268,0 0,24.79426 c 0,6.42744 -1.7752,11.3618 -5.32559,14.80574 -3.55041,3.4466 -8.0962,5.17122 -13.63471,5.17122 -5.53853,0 -10.09497,-1.73527 -13.66665,-5.2005 -3.57168,-3.46789 -5.35753,-8.39429 -5.35753,-14.77646 l 0,-24.79426 9.89267,0 0,24.47753 c 0,3.55039 0.82505,6.35027 2.47251,8.40225"
       style="fill:#373535;fill-opacity:1;fill-rule:nonzero;stroke:none"
       id="path80" /><path
       d="m 501.32049,461.5778 9.89532,0 0,44.32676 -9.89532,0 z"
       style="fill:#373535;fill-opacity:1;fill-rule:nonzero;stroke:none"
       id="path86" /><path
       d="m 958.92545,461.5778 9.89534,0 0,44.32676 -9.89534,0 z"
       style="fill:#373535;fill-opacity:1;fill-rule:nonzero;stroke:none"
       id="path124" /></g><g
     style="display:inline"
     id="layer2"><g
       style="fill:#ff0000"
       id="g5067"
       transform="matrix(0.09603521,0.09603521,-0.09603521,0.09603521,15.108116,235.98644)"><path
         style="fill:#ff0000"
         id="path5069"
         d="m 1147.2,758.9 9.4,9.4 -182.6,285 27.6,10.3 -65,0 211.2,-296.8 -0.6,-7.9 z" /><path
         style="fill:#ff0000"
         id="path5071"
         d="m 1150.2,745.7 -6.9,-19.2 379.5,-63 131.9,83.2 -130.9,-100.4 -391.3,64 1,15.3 16.7,20.1 z" /><path
         style="fill:#ff0000"
         id="path5073"
         d="m 1262.9,671.8 32,-4.4 c 14.4,-63.3 24.5,-126.7 35.4,-190 -17.9,68.6 -38.3,135.1 -67.4,194.4 l 0,0 z" /><path
         style="fill:#ff0000"
         id="path5075"
         d="m 1409.6,644.2 27.6,-2 c -27.7,-57.8 -32.5,-127 -42.8,-193.4 3.3,63.7 3.3,124.8 15.2,195.4 l 0,0 z" /><path
         style="fill:#ff0000"
         id="path5077"
         d="m 1454.9,436.5 68.4,57.6 c -2.4,54.1 30.7,112.1 60.5,169.8 l -42.8,-42.3 -36.9,2.5 c -23.2,-62.5 -36.9,-125 -49.2,-187.6 l 0,0 z" /><path
         style="fill:#ff0000"
         id="path5079"
         d="m 1407.2,442.5 -90.6,25.1" /><path
         style="fill:#ff0000"
         id="path5081"
         d="m 1293.4,459.2 c -19.8,76.8 -40,153.4 -68.9,228.4 l -35.9,7.4 c 45.5,-76.5 77.9,-155.6 104.8,-235.8 l 0,0 z" /><path
         style="fill:#ff0000"
         id="path5083"
         d="m 1278.6,454.2 -5.1,-12.4 178.4,-45.6 79.5,68.3 -79.3,-86.6 -187.4,54.9 1,12.4 12.9,9 z" /><path
         style="fill:#ff0000"
         id="path5085"
         d="m 1231.9,745 c -13.2,46.8 -68.6,91.2 -90.5,136.4 22.5,-18.6 30.8,-27.6 50.1,-34.8 5,-33.6 37.3,-65.3 40.4,-101.6 l 0,0 z" /><path
         style="fill:#ff0000"
         id="path5087"
         d="m 1227.1,793.1 66.1,-4.9 -70.3,41.1 40.4,-31.3 -36.2,-4.9 z" /><path
         style="fill:#ff0000"
         id="path5089"
         d="m 1443.6,731.1 c 15.4,49.4 44.4,91.2 71,134.3 -13,-9.8 -24.3,-21.4 -39.7,-25.1 -20.6,-32.7 -15.7,-43.4 -31.3,-109.2 l 0,0 z" /><path
         style="fill:#ff0000"
         id="path5091"
         d="m 1433.1,769.4 -80.7,16 78.7,25.1 -47.3,-26.5 49.3,-14.6 z" /><path
         style="fill:#ff0000"
         id="path5093"
         d="m 1543.8,698.4 105.8,70.3 c 7.6,50.1 62.7,103.9 95.8,159.5 l 57.4,96.6 -50.9,0 c 17.5,-5.9 27.5,-10.7 12.5,-34.8 C 1713.8,908.3 1680,855.2 1653,845.9 l 40.4,52.9 0,5.6 -11.8,-2.1 1.4,-5.6 -32.7,-43.9 c -13.4,-17.9 -32.2,-4.9 -17.4,23 l 100.2,188.6 -81.4,-0.7 c 35.4,-19.3 41.5,-21.1 20.2,-67.5 -53.5,-116.1 -127.8,-203 -128.1,-297.8 l 0,0 z" /><path
         style="fill:#ff0000"
         id="path5095"
         d="m 1047.4,1062.4 31.3,-0.7 c 11.9,-144.1 133.5,-235.7 247.7,-236.8 114.3,-1.1 213.1,91.3 247.2,236.1 l 29.9,0 C 1518,814.6 1382.9,816.1 1302.8,819.5 c -95.9,4.1 -232.7,115.5 -255.4,242.9 l 0,0 z" /><path
         style="fill:#ff0000"
         id="path5097"
         d="m 1142.1,937.1 c 45.2,-55.3 154.4,-105.1 124.6,68.2 8.7,6.9 26.8,12 43.2,17.4 l -71.7,1.4 c 41.3,-159.2 -19.2,-137.5 -96.1,-87 l 0,0 z" /><path
         style="fill:#ff0000"
         id="path5099"
         d="m 1348.2,1023.4 25.1,-0.7 c -9.8,-57.8 24.7,-131.7 118,-133.4 -66.2,-15.9 -127.3,16.4 -143.1,134.1 l 0,0 z" /><path
         style="fill:#ff0000"
         id="path5101"
         d="m 1341.9,395.6 9.7,-2.8 20.2,-244.3 21.6,231.8 12.5,-2.1 -34.1,-353.6 -29.9,371 z" /><path
         style="fill:#ff0000"
         id="path5103"
         d="m 1297.4,408.1 21.6,-6.3 c 17.1,-156.3 26.9,-315.5 34.8,-475.5 l -4.2,0.7 c -8.4,162.4 -22.6,323.4 -52.2,481.1 l 0,0 z" /><path
         style="fill:#ff0000"
         id="path5105"
         d="m 1346.1,-70.9 1.5,-4.4 49.5,-14.5 27.1,25.6 -25.6,-37.2 -55.1,22.4 -0.7,3 3.3,5.1 z" /><path
         style="fill:#ff0000"
         id="path5107"
         d="m 1338.1,-97.8 -2.5,-15.7 71,-21.6 23.4,52.4 -21.7,-63.9 -77.5,29.5 -0.9,2.9 8.2,16.4 z" /><path
         style="fill:#ff0000"
         id="path5109"
         d="m 1339.5,-130.7 -4.5,-17.8 c 13.8,-5.4 26.8,-12.3 37.6,-23.7 l 33.1,0.7 0.3,21.2 c 0,0 1.6,-12.9 3.5,-19.1 0.8,-2.5 3.1,-7.3 3.1,-7.3 l -33.8,-4.9 -5.9,-70 -4.6,71.7 c -10.8,12.3 -26.2,22.2 -42.5,31.7 0,0 4.9,4.4 7,7 2.6,3.3 6.6,10.5 6.7,10.5 l 0,0 z" /><path
         style="fill:#ff0000"
         id="path5111"
         d="m 1401.1,-77.8 21.6,20.9 c 5.6,130.8 30.8,283 56.4,435.8 l -16.7,-19.5 -25.8,9 C 1413.8,231.9 1409.9,74.3 1401.1,-77.8 l 0,0 z" /><path
         style="fill:#ff0000"
         id="path5113"
         d="m 1366.8,-77.4 9,-2.8 -1.4,55.7 -7,7 -0.6,-59.9 z" /></g></g><g
     id="g4455"
     style="display:inline"><g
       transform="matrix(0.09603521,0.09603521,-0.09603521,0.09603521,15.108116,235.98644)"
       id="g4457"
       style="fill:#ff0000"><path
         d="m 1407.2,442.5 -90.6,25.1"
         id="path4469"
         style="fill:#ff0000" /><path
         transform="matrix(10.392552,-10.392552,10.392552,10.392552,-5996.9371,-488.43184)"
         id="path4493"
         d="m 333.50586,373.43945 c -1.06932,0.96414 -2.05155,1.83753 -3.14453,2.76367 l 0.44921,0.008 c 1.00112,-0.88571 1.8959,-1.73168 2.89063,-2.63281 z"
         style="fill:#ffffff" /><path
         d="m 1346.1,-70.9 1.5,-4.4 49.5,-14.5 27.1,25.6 -25.6,-37.2 -55.1,22.4 -0.7,3 3.3,5.1 z"
         id="path4495"
         style="fill:#ffffff" /><path
         d="m 1338.1,-97.8 -2.5,-15.7 71,-21.6 23.4,52.4 -21.7,-63.9 -77.5,29.5 -0.9,2.9 8.2,16.4 z"
         id="path4497"
         style="fill:#ffffff" /><path
         d="m 1339.5,-130.7 -4.5,-17.8 c 13.8,-5.4 26.8,-12.3 37.6,-23.7 l 33.1,0.7 0.3,21.2 c 0,0 1.6,-12.9 3.5,-19.1 0.8,-2.5 3.1,-7.3 3.1,-7.3 l -33.8,-4.9 -5.9,-70 -4.6,71.7 c -10.8,12.3 -26.2,22.2 -42.5,31.7 0,0 4.9,4.4 7,7 2.6,3.3 6.6,10.5 6.7,10.5 l 0,0 z"
         id="path4499"
         style="fill:#ffffff" /><path
         transform="matrix(10.392552,-10.392552,10.392552,10.392552,-5996.9371,-488.43184)"
         id="path4501"
         d="m 336.17383,375.68555 c -1.17948,1.37629 -2.62685,2.91291 -3.81737,4.29016 l 0,2.21582 c 1.20079,-1.57649 2.6591,-3.11208 3.85057,-4.46106 z"
         style="fill:#ffffff" /><path
         transform="matrix(10.392552,-10.392552,10.392552,10.392552,-5996.9371,-488.43184)"
         id="path4503"
         d="m 334.50391,374.05469 -2.15235,2.20508 c 0,0 0,0 0.004,0.67578 l 2.7168,-2.58203 z"
         style="fill:#ffffff" /></g></g><g
     style="display:inline"
     id="layer3"><text
       id="text4763"
       y="497.81781"
       x="144.91531"
       style="font-style:normal;font-weight:normal;font-size:79.84407806px;line-height:125%;font-family:sans-serif;letter-spacing:0px;word-spacing:0px;fill:#ffffff;fill-opacity:1;stroke:none;stroke-width:1px;stroke-linecap:butt;stroke-linejoin:miter;stroke-opacity:1"
       xml:space="preserve"><tspan
         style="font-style:normal;font-variant:normal;font-weight:bold;font-stretch:normal;font-size:9.98050976px;font-family:sans-serif;-inkscape-font-specification:'sans-serif Bold';text-align:center;text-anchor:middle;fill:#ffffff"
         y="497.81781"
         x="144.91531"
         id="tspan4765">mergitur</tspan></text>
<text
       id="text4822"
       y="497.81787"
       x="30.09502"
       style="font-style:normal;font-weight:normal;font-size:79.84407806px;line-height:125%;font-family:sans-serif;text-align:center;letter-spacing:0px;word-spacing:0px;text-anchor:middle;fill:#ffffff;fill-opacity:1;stroke:none;stroke-width:1px;stroke-linecap:butt;stroke-linejoin:miter;stroke-opacity:1"
       xml:space="preserve"><tspan
         style="font-style:normal;font-variant:normal;font-weight:bold;font-stretch:normal;font-size:9.98050976px;font-family:sans-serif;-inkscape-font-specification:'sans-serif Bold';text-align:center;text-anchor:middle;fill:#ffffff"
         y="497.81787"
         x="30.09502"
         id="tspan4824">Fluctuat</tspan></text>
<text
       id="text4826"
       y="507.40939"
       x="87.993858"
       style="font-style:normal;font-weight:normal;font-size:79.84407806px;line-height:125%;font-family:sans-serif;letter-spacing:0px;word-spacing:0px;fill:#002395;fill-opacity:1;stroke:none;stroke-width:1px;stroke-linecap:butt;stroke-linejoin:miter;stroke-opacity:1"
       xml:space="preserve"><tspan
         style="font-style:normal;font-variant:normal;font-weight:bold;font-stretch:normal;font-size:12.47563553px;font-family:sans-serif;-inkscape-font-specification:'sans-serif Bold';text-align:center;text-anchor:middle;fill:#002395;fill-opacity:1"
         y="507.40939"
         x="87.993858"
         id="tspan4828">nec</tspan></text>
<g
       transform="matrix(0.32942707,0,0,0.32942707,469.59236,372.45732)"
       id="g5091" /></g></svg>