<?xml version="1.0" encoding="UTF-8" standalone="no"?>
<svg
   width="500px"
   height="296px"
   viewBox="0 0 500 296"
   version="1.1"
   id="svg993"
   sodipodi:docname="enix_logo.svg"
   xmlns:inkscape="http://www.inkscape.org/namespaces/inkscape"
   xmlns:sodipodi="http://sodipodi.sourceforge.net/DTD/sodipodi-0.dtd"
   xmlns:xlink="http://www.w3.org/1999/xlink"
   xmlns="http://www.w3.org/2000/svg"
   xmlns:svg="http://www.w3.org/2000/svg"
   xmlns:rdf="http://www.w3.org/1999/02/22-rdf-syntax-ns#"
   xmlns:cc="http://creativecommons.org/ns#"
   xmlns:dc="http://purl.org/dc/elements/1.1/">
  <sodipodi:namedview
     id="namedview995"
     pagecolor="#ffffff"
     bordercolor="#666666"
     borderopacity="1.0"
     inkscape:pageshadow="2"
     inkscape:pageopacity="0.0"
     inkscape:pagecheckerboard="0"
     showgrid="false" />
  <!-- Generator: Sketch 52.3 (67297) - http://www.bohemiancoding.com/sketch -->
  <title
     id="title972">cropped</title>
  <desc
     id="desc974">Created with Sketch.</desc>
  <defs
     id="defs977">
    <path
       d="M167.728001,367.36 C167.541334,365.679992 166.981339,364.345338 166.048001,363.356 C165.114663,362.366662 163.920008,361.872 162.464001,361.872 C161.045327,361.872 159.888006,362.366662 158.992001,363.356 C158.095997,364.345338 157.498669,365.679992 157.200001,367.36 L167.728001,367.36 Z M163.360001,385.728 C160.970656,385.728 158.786678,385.345337 156.808001,384.58 C154.829325,383.814663 153.121342,382.750673 151.684001,381.388 C150.246661,380.025327 149.126672,378.373343 148.324001,376.432 C147.52133,374.490657 147.120001,372.344012 147.120001,369.992 L147.120001,369.88 C147.120001,367.677322 147.493331,365.614676 148.240001,363.692 C148.986672,361.769324 150.041328,360.089341 151.404001,358.652 C152.766675,357.214659 154.381325,356.085337 156.248001,355.264 C158.114677,354.442663 160.16799,354.032 162.408001,354.032 C165.021348,354.032 167.289325,354.479996 169.212001,355.376 C171.134677,356.272004 172.721328,357.475992 173.972001,358.988 C175.222674,360.500008 176.155998,362.254657 176.772001,364.252 C177.388004,366.249343 177.696001,368.367989 177.696001,370.608 L177.696001,371.672 C177.696001,372.045335 177.677335,372.418665 177.640001,372.792 L157.368001,372.792 C157.77867,374.472008 158.553329,375.722663 159.692001,376.544 C160.830674,377.365337 162.239993,377.776 163.920001,377.776 C165.189341,377.776 166.355996,377.533336 167.420001,377.048 C168.484006,376.562664 169.557329,375.778672 170.640001,374.696 L176.520001,379.568 C175.063994,381.434676 173.262679,382.927994 171.116001,384.048 C168.969324,385.168006 166.384016,385.728 163.360001,385.728 Z M197.632001,354.704 L208.272001,354.704 L208.272001,358.96 C208.757337,358.32533 209.298664,357.709336 209.896001,357.112 C210.493337,356.514664 211.16533,355.992002 211.912001,355.544 C212.658671,355.095998 213.479996,354.732001 214.376001,354.452 C215.272005,354.171999 216.261329,354.032 217.344001,354.032 C220.592017,354.032 223.121325,355.021323 224.932001,357 C226.742676,358.978677 227.648001,361.703983 227.648001,365.176 L227.648001,385 L217.008001,385 L217.008001,368.592 C217.008001,366.911992 216.616005,365.642671 215.832001,364.784 C215.047997,363.925329 214.02134,363.496 212.752001,363.496 C211.445328,363.496 210.372005,363.925329 209.532001,364.784 C208.691997,365.642671 208.272001,366.911992 208.272001,368.592 L208.272001,385 L197.632001,385 L197.632001,354.704 Z M248.76,354.704 L259.4,354.704 L259.4,385 L248.76,385 L248.76,354.704 Z M248.536,344.12 L259.624,344.12 L259.624,351.96 L248.536,351.96 L248.536,344.12 Z M288.52,369.712 L278.496,354.704 L289.976,354.704 L294.456,362.152 L298.936,354.704 L310.192,354.704 L300.224,369.656 L310.416,385 L298.992,385 L294.288,377.216 L289.528,385 L278.328,385 L288.52,369.712 Z M328.672,374.08 L339.76,374.08 L339.76,385 L328.672,385 L328.672,374.08 Z M360.647999,354.704 L371.287999,354.704 L371.287999,385 L360.647999,385 L360.647999,354.704 Z M360.423999,344.12 L371.511999,344.12 L371.511999,351.96 L360.423999,351.96 L360.423999,344.12 Z M408.191999,376.712 C409.16267,376.712 410.039995,376.534668 410.823999,376.18 C411.608003,375.825332 412.270663,375.340003 412.811999,374.724 C413.353335,374.107997 413.773331,373.389337 414.071999,372.568 C414.370667,371.746663 414.519999,370.888004 414.519999,369.992 L414.519999,369.88 C414.519999,368.946662 414.361334,368.069337 414.043999,367.248 C413.726664,366.426663 413.278668,365.708003 412.699999,365.092 C412.121329,364.475997 411.440003,363.981335 410.655999,363.608 C409.871995,363.234665 409.013337,363.048 408.079999,363.048 C407.109327,363.048 406.232003,363.225332 405.447999,363.58 C404.663995,363.934668 404.001335,364.419997 403.459999,365.036 C402.918663,365.652003 402.498667,366.370663 402.199999,367.192 C401.901331,368.013337 401.751999,368.871996 401.751999,369.768 L401.751999,369.88 C401.751999,370.813338 401.910664,371.690663 402.227999,372.512 C402.545334,373.333337 402.993329,374.051997 403.571999,374.668 C404.150668,375.284003 404.831995,375.778665 405.615999,376.152 C406.400003,376.525335 407.258661,376.712 408.191999,376.712 Z M408.079999,385.728 C405.65332,385.728 403.422676,385.317337 401.387999,384.496 C399.353322,383.674663 397.58934,382.545341 396.095999,381.108 C394.602658,379.670659 393.445336,378.00001 392.623999,376.096 C391.802661,374.19199 391.391999,372.157344 391.391999,369.992 L391.391999,369.88 C391.391999,367.714656 391.811995,365.670676 392.651999,363.748 C393.492003,361.825324 394.658658,360.145341 396.151999,358.708 C397.64534,357.270659 399.418655,356.132004 401.471999,355.292 C403.525342,354.451996 405.76532,354.032 408.191999,354.032 C410.618678,354.032 412.849322,354.451996 414.883999,355.292 C416.918676,356.132004 418.682658,357.261326 420.175999,358.68 C421.66934,360.098674 422.826661,361.75999 423.647999,363.664 C424.469336,365.56801 424.879999,367.602656 424.879999,369.768 L424.879999,369.88 C424.879999,372.045344 424.460003,374.089324 423.619999,376.012 C422.779995,377.934676 421.61334,379.614659 420.119999,381.052 C418.626658,382.489341 416.853342,383.627996 414.799999,384.468 C412.746655,385.308004 410.506678,385.728 408.079999,385.728 Z"
       id="path-1" />
  </defs>
  <g
     id="Symbols"
     stroke="none"
     stroke-width="1.27578"
     fill="none"
     fill-rule="evenodd"
     transform="matrix(0.78383614,0,0,0.78383614,54.15854,31.354209)"
     inkscape:export-filename="/Users/lanablanchard/Downloads/enixlogokcd.png"
     inkscape:export-xdpi="134.39999"
     inkscape:export-ydpi="134.39999">
    <g
       id="logo-avec-domaine---couleur"
       transform="translate(-33,-127)"
       style="stroke-width:1.27578">
      <g
         id="logo-avec-domaine"
         transform="translate(0,15)"
         style="stroke-width:1.27578">
        <g
           id="Group"
           transform="translate(57,135)"
           fill="#377dff"
           fill-rule="nonzero"
           style="stroke-width:1.62761">
          <polygon
             id="Shape"
             points="298.5,51.5 298.5,148.8 330.5,100.1 "
             style="stroke-width:1.27578" />
          <path
             d="m 111.4,76.1 c -0.1,-0.1 0,0 -0.1,-0.1 -2.9,-3.8 -7,-5.9 -11.1,-5.9 -5.6,0 -9.6,2.1 -13.3,5.9 -2.9,2.9 -6.5,7.9 -7.1,14.7 h 24.5 c 8.2,0 11.6,-8.8 7.1,-14.6 z"
             id="path980"
             style="stroke-width:1.27578" />
          <path
             d="m 149.6,46.9 h 22.7 c 8.3,0 15.1,6.7 15.1,15.1 1.7,-2.2 3.6,-4.4 5.7,-6.5 2.1,-2.1 4.4,-4 7.1,-5.6 2.6,-1.6 5.5,-2.9 8.6,-3.9 3.1,-1 6.6,-1.5 10.4,-1.5 11.6,0 20.6,3.5 27,10.5 6.4,7 9.7,16.7 9.7,29 v 117.5 h 95.4 c 55.4,0 100.3,-44.9 100.3,-100.3 C 451.6,45.8 406.7,0.9 351.3,0.9 H 298.5 V 37.3 H 260.2 V 0.9 H 100.4 C 45,0.9 0.1,45.8 0.1,101.2 0.1,156.6 45,201.5 100.4,201.5 H 217.9 V 96.1 c 0,-6 -1.4,-10.4 -4.1,-13.5 -2.7,-3 -6.3,-4.6 -10.8,-4.6 -4.6,0 -8.3,1.5 -11.3,4.6 -0.4,0.4 -0.7,0.8 -1,1.2 -2.2,3 -3.3,7.1 -3.3,12.2 v 39.2 c 0,4.6 -1.6,8.8 -4.3,12.1 -3.5,4.3 -8.8,7 -14.7,7 -10.5,0 -18.9,-8.5 -18.9,-18.9 z M 43.9,101.1 v -0.4 c 0,-7.8 1.6,-15.1 4.2,-21.9 2.6,-6.8 6.4,-12.8 11.2,-17.9 4.8,-5.1 10.5,-9.1 17.2,-12 6.6,-2.9 13.9,-4.4 21.8,-4.4 9.3,0 17.3,1.6 24.1,4.8 6.8,3.2 12.5,7.4 16.9,12.8 0.1,0.1 0.2,0.2 0.3,0.4 15.4,19.7 1.2,48.5 -23.8,48.5 H 80.5 c 1.5,6 4.2,10.4 8.2,13.3 4,2.9 9,4.4 15,4.4 4.4,0 8.4,-0.8 12.1,-2.5 1.5,-0.7 3,-1.5 4.5,-2.6 4.5,-3 10.4,-2.9 14.5,0.6 l 13.2,10.9 c -5.2,6.6 -11.5,11.9 -19.1,15.9 -7.6,4 -16.8,6 -27.5,6 -8.5,0 -16.2,-1.4 -23.2,-4.1 -7,-2.7 -13.1,-6.5 -18.1,-11.3 C 55,136.8 51,130.9 48.2,124 45.3,117.1 43.8,109.5 43.9,101.1 Z m 229,53.2 c -7.1,0 -12.8,-5.8 -12.8,-12.9 V 46.9 h 62.2 c 8.3,0 15.9,4.4 20.1,11.5 l 9,15 10.5,-17.4 c 3.3,-5.5 9.3,-8.9 15.8,-8.9 h 29.4 l -35.3,53 36.1,54.3 H 378 c -6.5,0 -12.4,-3.4 -15.8,-8.9 L 351,126.7 339.5,145.4 c -3.4,5.5 -9.3,8.8 -15.7,8.8 z"
             id="path982"
             style="stroke-width:1.27578" />
        </g>
        <g
           id="enix.io"
           style="stroke-width:1.27578">
          <use
             fill="#ffffff"
             xlink:href="#path-1"
             id="use985"
             x="0"
             y="0"
             width="100%"
             height="100%"
             style="stroke-width:1.62761" />
          <use
             fill="#377dff"
             xlink:href="#path-1"
             id="use987"
             x="0"
             y="0"
             width="100%"
             height="100%"
             style="stroke-width:1.62761" />
        </g>
      </g>
    </g>
  </g>
  <metadata
     id="metadata997">
    <rdf:RDF>
      <cc:Work
         rdf:about="">
        <dc:title>cropped</dc:title>
      </cc:Work>
    </rdf:RDF>
  </metadata>
</svg>
